<svg id="Capa_1" data-name="Capa 1" xmlns="http://www.w3.org/2000/svg" viewBox="0 0 987.06 987.06"><defs><style>.cls-1{fill:#3e2723;}.cls-2{fill:#fff4bb;}.cls-10,.cls-2,.cls-4,.cls-5,.cls-6,.cls-7,.cls-8,.cls-9{fill-rule:evenodd;}.cls-3,.cls-8{fill:#fff;}.cls-4{fill:#eddc9c;}.cls-5{fill:#e4cf83;}.cls-6{fill:#006779;}.cls-7{fill:#004d60;}.cls-9{fill:#c80044;}.cls-10,.cls-11{fill:#af0d35;}</style></defs><title>Adicion</title><path class="cls-1" d="M987.06,493.54c0,272.56-221,493.52-493.53,493.52S0,766.1,0,493.54,221,0,493.53,0,987.06,221,987.06,493.54Z"/><path class="cls-2" d="M200.2,504.53H786.87c32.1,0,58.37,27.66,58.37,61.48V898c0,33.81-26.27,61.47-58.37,61.47H200.2c-32.11,0-58.37-27.66-58.37-61.47V566c0-33.82,26.26-61.48,58.37-61.48Z"/><path class="cls-3" d="M231.23,501.26v6.53h-32.8l-.36,0h-.35l-.35,0-.35,0-.35,0-.35,0-.36,0-.34,0-.35,0-.35,0-.34,0-.36,0-.34.05-.35,0-.34,0-.35.05-.34.05-.35.06-.34.05-.33,0-.34.07-.35.05-.34.06-.34.07-.23.05-1.17-6.42.26,0,.39-.07.37-.08.37-.07.39-.06.38-.06.38-.06.38-.06.39-.05.38-.06.38,0,.38-.05.39,0,.39,0,.38,0,.39-.05.4,0,.37,0,.4,0,.39,0,.39,0,.39,0h.39l.39,0,.4,0h33Zm-31,6.53v0Zm-17.84-3.74a60.09,60.09,0,0,0-18,9.42,65,65,0,0,0-9.32,8.71l4.57,4.43a55.39,55.39,0,0,1,23.57-16l1-.33-1.82-6.25Zm-31.49,23.42a66.48,66.48,0,0,0-11.8,31.67l6.17.67a59.57,59.57,0,0,1,10.62-28.45l-5-3.89ZM138.72,566h6.21v32.66h-6.21V566Zm0,39.2h6.21v32.68h-6.21V605.2Zm0,39.22h6.21v32.67h-6.21V644.42Zm0,39.21h6.21V716.3h-6.21V683.63Zm0,39.2h6.21v32.69h-6.21V722.83Zm0,39.22h6.21v32.67h-6.21V762.05Zm0,39.21h6.21v32.67h-6.21V801.26Zm0,39.21h6.21v32.68h-6.21V840.47Zm0,39.21h6.21v19.8l0,.38v.74l0,.37,0,.37v.38l0,.36,0,.37,0,.36,0,.37,0,.37,0,.36,0,.37,0,.36,0,.37,0,.36,0,.37.05.36.05.36,0,.37.05.35.06.35.06.37.06.35,0,.36.07.36.07.36.07.34.07.36.07.36.08.35.07.35.08.34h0l-6,1.56v0l-.08-.4-.09-.39-.08-.39-.08-.39L140,911l-.07-.4-.08-.39-.07-.4-.07-.4-.07-.4-.06-.39-.06-.4-.07-.41-.05-.4,0-.4-.06-.4-.05-.4-.05-.4,0-.42,0-.4,0-.41-.05-.41,0-.4,0-.41,0-.41,0-.41,0-.41,0-.41,0-.41v-.42l0-.4,0-.42V879.68Zm3.54,39.91a65.51,65.51,0,0,0,18.44,27.92l4-5a58.81,58.81,0,0,1-16.58-25.11l-5.84,2.21Zm23.65,32.07a59.07,59.07,0,0,0,30.57,11l.36-6.53a53,53,0,0,1-27.48-9.87l-3.45,5.44Zm36.94,11.07V956.2h31v6.53Zm37.24,0V956.2h31v6.53Zm37.23,0V956.2h31v6.53Zm37.24,0V956.2h31v6.53Zm37.22,0V956.2h31v6.53Zm37.23,0V956.2h31v6.53Zm37.24,0V956.2h31v6.53Zm37.23,0V956.2h31v6.53Zm37.22,0V956.2h31v6.53Zm37.24,0V956.2h31v6.53Zm37.23,0V956.2h31v6.53Zm37.24,0V956.2h31v6.53Zm37.23,0V956.2h31v6.53Zm37.22,0V956.2h31v6.53Zm37.24,0V956.2h31v6.53Zm37.23,0V956.2h27l.35,0h.7l.36,0,.34,0,.36,0,.35,0,.35,0,.35,0,.35,0,.25,0,.59,6.51-.28,0-.4,0-.39,0-.39,0-.38,0-.39,0-.39,0-.4,0h-.39l-.39,0h-.4l-.39,0H761.33Zm37.77-1.3a60.26,60.26,0,0,0,28.83-15.36l-4.18-4.83L823,942A54.22,54.22,0,0,1,797.85,955l1.25,6.4Zm33.43-20.2a66.21,66.21,0,0,0,14.58-30.36L841,909.59a59.43,59.43,0,0,1-13.11,27.27l4.61,4.37Zm15.54-37.17,0-.29,0-.41,0-.41,0-.41,0-.41,0-.41,0-.41,0-.42,0-.4V871.1h-6.21v29.5l0,.37,0,.37v.38l0,.36,0,.37,0,.36,0,.37,0,.3,6.18.58Zm.27-39.5h-6.21V831.89h6.21v32.67Zm0-39.21h-6.21V792.68h6.21v32.67Zm0-39.21h-6.21V753.47h6.21v32.67Zm0-39.21h-6.21V714.26h6.21v32.67Zm0-39.21h-6.21V675.05h6.21v32.67Zm0-39.21h-6.21V635.84h6.21v32.67Zm0-39.21h-6.21V596.63h6.21V629.3Zm0-39.21h-6.21v-26.7l0-.37,0-.37v-.38l0-.36,0-.37,0-.36,0-.37,0-.37,0-.36,0-.37,0-.37,0-.36,0-.37,0-.36,0-.34,6.14-.92.06.4,0,.4.06.4,0,.41.05.4,0,.41,0,.41,0,.41,0,.4,0,.41,0,.41,0,.42,0,.4,0,.41,0,.42,0,.41v26.58Zm-1.86-39.88a65.86,65.86,0,0,0-15.87-29.6l-4.41,4.6a59.33,59.33,0,0,1,14.28,26.64l6-1.64ZM825.79,516A59.93,59.93,0,0,0,796.33,502l-.94,6.46A53.91,53.91,0,0,1,821.86,521l3.93-5.07Zm-36-14.64h-.21l-.39,0-.39,0H758.67v6.53h30l.35,0h.57l.27-6.53Zm-37.37-.07v6.53h-31v-6.53Zm-37.24,0v6.53h-31v-6.53Zm-37.23,0v6.53H647v-6.53Zm-37.22,0v6.53h-31v-6.53Zm-37.23,0v6.53h-31v-6.53Zm-37.24,0v6.53h-31v-6.53Zm-37.23,0v6.53h-31v-6.53Zm-37.23,0v6.53h-31v-6.53Zm-37.23,0v6.53h-31v-6.53Zm-37.23,0v6.53h-31v-6.53Zm-37.23,0v6.53h-31v-6.53Zm-37.23,0v6.53h-31v-6.53Zm-37.23,0v6.53h-31v-6.53Zm-37.23,0v6.53h-31v-6.53Z"/><path class="cls-4" d="M200.2,535.24H786.87c16.06,0,29.2,13.85,29.2,30.77V898c0,16.91-13.14,30.76-29.2,30.76H200.2C184.14,928.75,171,914.9,171,898V566c0-16.92,13.15-30.77,29.21-30.77Z"/><path class="cls-5" d="M816.07,828.77V898c0,16.91-13.14,30.76-29.2,30.76H200.2C184.14,928.75,171,914.9,171,898V816c4.48,4.33,8.18,10.47,10.84,18.85,9.08,28.62,50,71.38,76,16,44.49-94.6,46.84,45,150.91,33.37,11.91-1.34,15.48-50.62,36.77-43.06s54.55,56.31,94.67,36.89c7.51-3.63,12.22-52.21,43.84-43.64s63.14,62.8,129.13,10.76c46.73-36.84,66.87-29.35,102.92-16.44Z"/><path class="cls-6" d="M200.2,535.24H786.87c16.06,0,29.2,13.85,29.2,30.77V744.17H171V566c0-16.92,13.15-30.77,29.21-30.77Z"/><path class="cls-7" d="M816.07,649.66v94.51H171V652.94c31.15-23.57,77.21-44.15,91.75,1.68,9.08,28.62,50,71.37,76,16,44.5-94.61,46.84,45,150.91,33.36,11.9-1.34,15.47-50.63,36.78-43.06s54.54,56.32,94.66,36.88c7.5-3.63,12.21-52.2,43.83-43.62S728.07,717,794.07,664.94a195.3,195.3,0,0,1,22-15.28Z"/><path class="cls-8" d="M711.59,493.91h.64l0,0h.53l0,0H713l0,0h.13a79.65,79.65,0,0,1,10.3,4.92,15.68,15.68,0,0,0,1.39-6.29l0,0c8.11-4.29,12.27-7.51,17-6.4,10.2,2.41,21.14-7,30.94-9.19s13.88-7.22,12.63-14.34c-2.14-12.12-16-13.83-28.35-11.1s-20.7,10.07-28.67,17.92c-11,11-17.19,19.47-17.63,23.58l.78.29Zm64.33-36.23c5.39,3.48,4.46,10.88-1.27,11.3-8.29.61-16.78,1-30.52,12.06-3.48,2.61-8-.27-7.88-4.85.34-14.06,28.65-25.62,39.67-18.51Zm-83,45.28c-22.3,8.73-44.43,17.93-58.13,26.07a.47.47,0,0,0-.24.51,1,1,0,0,0,.4.63l.18.14a1.53,1.53,0,0,0,1.21.37c24.74-4.74,47.16-12.47,70.58-20.78-1.22-.57-2.44-1.14-3.65-1.74q-5.19-2.57-10.35-5.2Zm37.35-28.53c-7.08,4.88-12.62,12-18.07,19,4.62-8.62,11.25-17.27,22.32-25.94-2.82,4.47-2.62,9.27-.91,14.49a13.46,13.46,0,0,1-3.34-7.55Zm45.8-.51c5.57-1.49,8.25-4.77,7.74-10-.87,4.27-3.6,7.53-7.74,10Zm-33.66,10.94c9,1.9,21-6.78,32.69-11.09-19.75,1.83-19.86,8.43-32.69,11.09Zm34.77-28.51c-11.67-7.45-41.87,5-42.15,20.19-.08,3.77,2.75,6.29,5.51,7.7-3.48-1.29-6.36-4-6.35-7.93.07-16,30.92-28.71,43-20Zm-53.74,44.28a8.66,8.66,0,0,1,3.92,5.58c9.27,2.5,16.84,6.14,21.93,10.88a26.22,26.22,0,0,0,15.46,7.55c8.9,1.15,14.29,4.85,17.24,11.78,2.17,9.75-.86,19-16.86,20.1-9.72.64-17.88-6.58-22.66-16.37-4.35-8.91-11.84-16.58-22.35-23.34a36.29,36.29,0,0,1-4.91-4.39l-11.52-5.22-68-36.14a.45.45,0,0,1-.22-.51.55.55,0,0,1,.43-.41l5.39-1.05a2,2,0,0,1,.94.05,533,533,0,0,1,55.15,20.38c9.23,4.16,17.36,6,26,11.11Zm35.75,29c-3.78-1.73-9-1.62-10.94,1.39-2.64,4-.4,12.66,6.09,15.77,5.83,2.79,10.9-.62,12-4.69,1.29-4.71-2.06-10.13-7.18-12.47Zm6.11,2.74c-5.25-6.72-23.85-13.24-28.44-10.08-1.9,1.31,1.34,6.69,4.71,12.07,5.65,9.06,13.16,19.1,22.47,14.17,5.48-2.89,5.6-10.62,1.26-16.16Zm-.25.71c-4.91-6.27-22.29-12.45-26.59-9.49-1.77,1.22,1.68,6.75,4.83,11.79,5.29,8.45,12.36,17.06,20.53,12.74,5.11-2.71,5.29-9.86,1.23-15Zm-33.38-17.93c2.85-4.88,10.13,1.8,15.53,4-4.51-1.07-9.9-4.34-12.93-1.68-1.38,1.22-.69,3.7-.28,6-1.89-2.17-4.17-5.14-2.32-8.29ZM759,525.26c4.94,2.82,9.65,6,12.37,11.92a16.47,16.47,0,0,1,9.3.72C776.37,527.8,768,527.46,759,525.26Zm-50-24.35a4.07,4.07,0,0,0,1.09,5.44,3.63,3.63,0,0,0,5.17-1.16,4.05,4.05,0,0,0-1.1-5.44,3.6,3.6,0,0,0-5.16,1.16Zm.51.35a3.38,3.38,0,0,0,.92,4.55,3,3,0,0,0,4.31-1,3.4,3.4,0,0,0-.91-4.55,3,3,0,0,0-4.32,1Z"/><polygon class="cls-9" points="207.39 876.05 779.67 876.05 779.67 881.12 207.39 881.12 207.39 876.05 207.39 876.05"/><polygon class="cls-9" points="207.39 885.27 779.67 885.27 779.67 887.8 207.39 887.8 207.39 885.27 207.39 885.27"/><polygon class="cls-10" points="225.59 892.92 228.4 902.08 237.55 902.07 230.14 907.71 232.99 916.87 225.59 911.2 218.2 916.87 221.05 907.71 213.63 902.07 222.78 902.08 225.59 892.92 225.59 892.92"/><polygon class="cls-10" points="257.12 892.92 259.93 902.08 269.07 902.07 261.67 907.71 264.5 916.87 257.12 911.2 249.73 916.87 252.57 907.71 245.16 902.07 254.3 902.08 257.12 892.92 257.12 892.92"/><polygon class="cls-10" points="288.64 892.92 291.45 902.08 300.6 902.07 293.19 907.71 296.03 916.87 288.64 911.2 281.25 916.87 284.09 907.71 276.68 902.07 285.83 902.08 288.64 892.92 288.64 892.92"/><polygon class="cls-10" points="320.16 892.92 322.98 902.08 332.12 902.07 324.71 907.71 327.55 916.87 320.16 911.2 312.76 916.87 315.61 907.71 308.2 902.07 317.35 902.08 320.16 892.92 320.16 892.92"/><polygon class="cls-10" points="351.68 892.92 354.49 902.08 363.65 902.07 356.23 907.71 359.08 916.87 351.68 911.2 344.29 916.87 347.13 907.71 339.72 902.07 348.88 902.08 351.68 892.92 351.68 892.92"/><polygon class="cls-10" points="383.21 892.92 386.02 902.08 395.16 902.07 387.75 907.71 390.6 916.87 383.21 911.2 375.81 916.87 378.66 907.71 371.25 902.07 380.39 902.08 383.21 892.92 383.21 892.92"/><polygon class="cls-10" points="414.73 892.92 417.54 902.08 426.69 902.07 419.27 907.71 422.11 916.87 414.73 911.2 407.33 916.87 410.19 907.71 402.76 902.07 411.91 902.08 414.73 892.92 414.73 892.92"/><polygon class="cls-10" points="446.25 892.92 449.06 902.08 458.21 902.07 450.8 907.71 453.64 916.87 446.25 911.2 438.85 916.87 441.7 907.71 434.29 902.07 443.44 902.08 446.25 892.92 446.25 892.92"/><polygon class="cls-10" points="477.77 892.92 480.58 902.08 489.73 902.07 482.32 907.71 485.17 916.87 477.77 911.2 470.38 916.87 473.22 907.71 465.81 902.07 474.96 902.08 477.77 892.92 477.77 892.92"/><polygon class="cls-10" points="509.29 892.92 512.11 902.08 521.25 902.07 513.85 907.71 516.69 916.87 509.29 911.2 501.9 916.87 504.75 907.71 497.34 902.07 506.49 902.08 509.29 892.92 509.29 892.92"/><polygon class="cls-10" points="540.82 892.92 543.63 902.08 552.78 902.07 545.36 907.71 548.21 916.87 540.82 911.2 533.42 916.87 536.27 907.71 528.86 902.07 538.01 902.08 540.82 892.92 540.82 892.92"/><polygon class="cls-10" points="572.34 892.92 575.15 902.08 584.3 902.07 576.88 907.71 579.73 916.87 572.34 911.2 564.95 916.87 567.79 907.71 560.38 902.07 569.53 902.08 572.34 892.92 572.34 892.92"/><polygon class="cls-10" points="603.86 892.92 606.67 902.08 615.82 902.07 608.41 907.71 611.25 916.87 603.86 911.2 596.47 916.87 599.32 907.71 591.9 902.07 601.05 902.08 603.86 892.92 603.86 892.92"/><polygon class="cls-10" points="635.38 892.92 638.19 902.08 647.35 902.07 639.93 907.71 642.78 916.87 635.38 911.2 627.99 916.87 630.84 907.71 623.42 902.07 632.57 902.08 635.38 892.92 635.38 892.92"/><polygon class="cls-10" points="666.9 892.92 669.72 902.08 678.86 902.07 671.45 907.71 674.3 916.87 666.9 911.2 659.51 916.87 662.36 907.71 654.95 902.07 664.09 902.08 666.9 892.92 666.9 892.92"/><polygon class="cls-10" points="698.43 892.92 701.24 902.08 710.39 902.07 702.97 907.71 705.82 916.87 698.43 911.2 691.03 916.87 693.88 907.71 686.47 902.07 695.62 902.08 698.43 892.92 698.43 892.92"/><polygon class="cls-10" points="729.95 892.92 732.76 902.08 741.91 902.07 734.5 907.71 737.34 916.87 729.95 911.2 722.55 916.87 725.4 907.71 718 902.07 727.14 902.08 729.95 892.92 729.95 892.92"/><polygon class="cls-10" points="761.47 892.92 764.28 902.08 773.43 902.07 766.02 907.71 768.86 916.87 761.47 911.2 754.08 916.87 756.93 907.71 749.51 902.07 758.67 902.08 761.47 892.92 761.47 892.92"/><path class="cls-3" d="M411.26,626.15l-8.79,4.2-8.41-19.29-18.25,0-8.47,19.49-8.59-4.31,22.54-51.85,5.77-2.6Zm-26.4-36.1-5.31,12.4,10.74,0Z"/><path class="cls-3" d="M448,628.73l-6.49-2.65c-1.59.41-3.05.81-4.37,1.19a16.26,16.26,0,0,1-4.5.58,17.45,17.45,0,0,1-7.22-1.46,18.27,18.27,0,0,1-5.81-4.09,19.17,19.17,0,0,1-3.91-6.14,20.42,20.42,0,0,1-1.42-7.63,22,22,0,0,1,1.35-7.91,18.76,18.76,0,0,1,3.78-6.16,17,17,0,0,1,5.76-4,18.49,18.49,0,0,1,7.31-1.46,17.06,17.06,0,0,1,6,.9l0-16.1,9.44-2.91Zm-9.51-29.22a9,9,0,0,0-2.92-1.25,15.17,15.17,0,0,0-2.85-.26,8.4,8.4,0,0,0-3.57.77,8.59,8.59,0,0,0-2.81,2.13,9.84,9.84,0,0,0-1.83,3.23,13,13,0,0,0-.64,4.15,12.8,12.8,0,0,0,.7,4.25,10.35,10.35,0,0,0,1.95,3.45,9.18,9.18,0,0,0,3,2.31,8.54,8.54,0,0,0,3.79.83,6.29,6.29,0,0,0,2.74-.58q1.15-.57,2.52-1.41Z"/><path class="cls-3" d="M469.72,577.79l-8.56,9.28-8.61-9.24,8.57-9.14ZM465.64,627l-9.45,0-.07-36,9.43-4.13Z"/><path class="cls-3" d="M501,600.81c-1.39-.61-2.59-1.08-3.6-1.43s-1.92-.65-2.71-.87a14.38,14.38,0,0,0-2.09-.46,15.29,15.29,0,0,0-1.77-.11,8.35,8.35,0,0,0-6.63,2.95,11.39,11.39,0,0,0-2.51,7.71,10.6,10.6,0,0,0,2.58,7.52,9,9,0,0,0,7,2.71,15.89,15.89,0,0,0,4.14-.61,58.93,58.93,0,0,0,6.24-2.22l3.77,8a36.12,36.12,0,0,1-3.86,1.61c-1.33.46-2.62.85-3.9,1.19a30.13,30.13,0,0,1-3.6.72,21.67,21.67,0,0,1-3,.24,20.15,20.15,0,0,1-7.68-1.39,17.4,17.4,0,0,1-6-3.9,17.78,17.78,0,0,1-3.91-6,20.45,20.45,0,0,1-1.42-7.67,22.16,22.16,0,0,1,1.39-8,19,19,0,0,1,3.88-6.28,17.31,17.31,0,0,1,5.94-4.08,19.5,19.5,0,0,1,7.5-1.45,23.19,23.19,0,0,1,6.32,1.08,52.8,52.8,0,0,1,7.53,2.84Z"/><path class="cls-3" d="M523.31,577.67,514.74,587l-8.6-9.24,8.56-9.14Zm-4.08,49.23-9.45,0-.07-36,9.43-4.12Z"/><path class="cls-3" d="M561.25,616a19.08,19.08,0,0,1-3.92,6.16,17.9,17.9,0,0,1-5.94,4.07,18.43,18.43,0,0,1-7.42,1.5,18.12,18.12,0,0,1-7.36-1.46,18.5,18.5,0,0,1-5.92-4,18.73,18.73,0,0,1-4-6.14,20.33,20.33,0,0,1-1.45-7.67,20.09,20.09,0,0,1,1.42-7.72,19.39,19.39,0,0,1,4-6.16,18.12,18.12,0,0,1,5.9-4.11,18.3,18.3,0,0,1,7.36-1.5,18.66,18.66,0,0,1,7.43,1.46,17.8,17.8,0,0,1,6,4.09,19.59,19.59,0,0,1,3.94,6.15,21.19,21.19,0,0,1,0,15.38Zm-9-11.87a10.44,10.44,0,0,0-1.92-3.34,9.5,9.5,0,0,0-2.86-2.23,7.63,7.63,0,0,0-3.57-.83,8.22,8.22,0,0,0-3.53.8,8.94,8.94,0,0,0-2.88,2.25,10.49,10.49,0,0,0-1.9,3.39,13.28,13.28,0,0,0,0,8.42,9.71,9.71,0,0,0,1.92,3.31,9.28,9.28,0,0,0,2.89,2.16,8.3,8.3,0,0,0,7.11,0,9.51,9.51,0,0,0,2.84-2.17,9.87,9.87,0,0,0,1.9-3.31,13.31,13.31,0,0,0,0-8.43ZM544.17,588l-4.83-3.19,10.13-18,5.48,4.24Z"/><path class="cls-3" d="M575.69,590.54a30.34,30.34,0,0,1,4.76-1.38,27.29,27.29,0,0,1,5.55-.54q6.64,0,10.65,3.88t4,12l.05,22.25-9.38,0,0-21c0-2.74-.54-4.81-1.61-6.22a4.93,4.93,0,0,0-4.18-2.12,14.9,14.9,0,0,0-6.85,1.3l.06,28-9.38,0-.08-39.72,6.42,3.63Z"/><path class="cls-3" d="M267,671.34a56.07,56.07,0,0,0-8.16-3.47,25.21,25.21,0,0,0-8.08-1.27,15.85,15.85,0,0,0-6.7,1.42,16.4,16.4,0,0,0-5.37,3.92,18.54,18.54,0,0,0-3.55,5.93,22,22,0,0,0,0,14.89,17.07,17.07,0,0,0,3.62,5.84,16.16,16.16,0,0,0,5.52,3.78,17.82,17.82,0,0,0,7,1.36,25.46,25.46,0,0,0,3.42-.24,27.25,27.25,0,0,0,3.82-.8,43.8,43.8,0,0,0,4.43-1.54,52.76,52.76,0,0,0,5.26-2.47l3.13,8.8a39.61,39.61,0,0,1-10.71,4.28,44.84,44.84,0,0,1-9.27,1.09,28.43,28.43,0,0,1-11-2.07,26.07,26.07,0,0,1-8.74-5.79,27.24,27.24,0,0,1-5.79-8.72,28.22,28.22,0,0,1-2.11-10.94,27.34,27.34,0,0,1,17-25.75,26.76,26.76,0,0,1,10.24-2,41.29,41.29,0,0,1,9.24,1.08,51.77,51.77,0,0,1,10.82,4Z"/><path class="cls-3" d="M297.76,685.86a9.13,9.13,0,0,0-2.67-2,6.49,6.49,0,0,0-2.82-.67,7.3,7.3,0,0,0-3,.68,5.53,5.53,0,0,0-2.52,2.75l.06,25.74-9.45,0-.08-39.2,5.85,3.79h.29a13.34,13.34,0,0,1,4-2.09,15.26,15.26,0,0,1,5.08-.89,17.19,17.19,0,0,1,5.52.83,11.72,11.72,0,0,1,4.3,2.49Z"/><path class="cls-3" d="M309,695.78a7.29,7.29,0,0,0,.62,3.35,8,8,0,0,0,2,2.65,8.58,8.58,0,0,0,3,1.74,11.34,11.34,0,0,0,3.75.6,10.75,10.75,0,0,0,4.9-1.15,21,21,0,0,0,4.61-3.35L332,707.2a27.84,27.84,0,0,1-6.59,4.16,19.7,19.7,0,0,1-15.36.18,16.83,16.83,0,0,1-5.85-4.09,18.48,18.48,0,0,1-3.77-6.22,22.87,22.87,0,0,1-1.35-7.93,22.55,22.55,0,0,1,1.25-7.71,17.63,17.63,0,0,1,3.52-6.05,15.87,15.87,0,0,1,5.51-3.92,17.71,17.71,0,0,1,7.14-1.42,14.63,14.63,0,0,1,5.66,1.16,14,14,0,0,1,5.16,3.78,20.21,20.21,0,0,1,3.77,6.72,30.12,30.12,0,0,1,1.46,9.87Zm12.82-7.85a8.17,8.17,0,0,0-2-3.64A5,5,0,0,0,316,682.7a5.94,5.94,0,0,0-4,1.49,8.26,8.26,0,0,0-2.37,3.77Z"/><path class="cls-3" d="M348.91,674.77a18.36,18.36,0,0,1,5.08-.66,15.28,15.28,0,0,1,6.24,1,12.26,12.26,0,0,1,3.43,2.23,50.12,50.12,0,0,1,5.19-2.29,19.18,19.18,0,0,1,6.56-1q6.7,0,9.93,4.16t3.23,11l.05,22.86-9.38,0,0-20.89a15,15,0,0,0-1-6,3.79,3.79,0,0,0-3.82-2.31,9.76,9.76,0,0,0-3.61.62,10.85,10.85,0,0,0-2.88,1.75c.05.21.13.71.26,1.52a16,16,0,0,1,.18,2.35l.05,22.94-9.45,0,0-21c0-3-.41-5.12-1.21-6.41a3.94,3.94,0,0,0-3.64-1.93,10.26,10.26,0,0,0-3.5.5,22,22,0,0,0-2.49,1.1l.06,27.73-9.45,0-.08-39.8,6.5,3.71A37.9,37.9,0,0,1,348.91,674.77Z"/><path class="cls-3" d="M415.88,711.42c-.44.1-1,.22-1.8.34s-1.61.25-2.5.35-1.78.18-2.7.24-1.75.08-2.52.08a9.5,9.5,0,0,1-4.44-1.06,12.27,12.27,0,0,1-3.61-2.8,13.91,13.91,0,0,1-2.46-3.86,10.91,10.91,0,0,1-.91-4.34,12.7,12.7,0,0,1,1.71-7,12.44,12.44,0,0,1,4.39-4.15,17,17,0,0,1,5.95-2,48.69,48.69,0,0,1,6.38-.47v-1.59a3,3,0,0,0-1-2.28,3.74,3.74,0,0,0-2.64-.91,17.7,17.7,0,0,0-5.15.89,16.69,16.69,0,0,0-5.29,2.86l-3.84-8a23.25,23.25,0,0,1,8-3.39,37.45,37.45,0,0,1,7.39-.82,16.52,16.52,0,0,1,3.86.49,11.09,11.09,0,0,1,3.86,1.74,9.71,9.71,0,0,1,3,3.41,11.34,11.34,0,0,1,1.21,5.5l.06,29.09ZM413.39,695a31.33,31.33,0,0,0-3.25.2,10.11,10.11,0,0,0-2.84.77,4.88,4.88,0,0,0-2,1.64,4.63,4.63,0,0,0-.75,2.73,4.28,4.28,0,0,0,.83,2.63,2.5,2.5,0,0,0,2.06,1.09c.48,0,1,0,1.62-.08s1.18-.12,1.73-.19,1.07-.17,1.55-.27a6.38,6.38,0,0,0,1.09-.31Z"/><path class="cls-3" d="M499,670.82a56.07,56.07,0,0,0-8.16-3.47,25.54,25.54,0,0,0-8.08-1.28,16,16,0,0,0-12.07,5.35,18.64,18.64,0,0,0-3.56,5.93,20.91,20.91,0,0,0-1.28,7.44,21.16,21.16,0,0,0,1.31,7.45,17.42,17.42,0,0,0,3.62,5.84,16.44,16.44,0,0,0,5.53,3.78,17.62,17.62,0,0,0,7,1.35,25.88,25.88,0,0,0,7.25-1,41.27,41.27,0,0,0,4.43-1.53,55.38,55.38,0,0,0,5.26-2.48l3.12,8.81a39.71,39.71,0,0,1-10.7,4.27,43.51,43.51,0,0,1-9.27,1.09,28.52,28.52,0,0,1-11-2.07,26.15,26.15,0,0,1-8.73-5.78,27.17,27.17,0,0,1-5.79-8.73,28,28,0,0,1-2.12-10.93,27.28,27.28,0,0,1,17-25.75A26.77,26.77,0,0,1,483,657a42.49,42.49,0,0,1,9.24,1.08,52.06,52.06,0,0,1,10.82,4Z"/><path class="cls-3" d="M519.22,675.18c1-.35,2-.69,3.17-1a15.68,15.68,0,0,1,3.82-.46,16.43,16.43,0,0,1,5.74,1,12.2,12.2,0,0,1,4.55,3,13.65,13.65,0,0,1,3,4.93,19.61,19.61,0,0,1,1.1,6.83l0,22.33-9.38,0,0-21a11.64,11.64,0,0,0-1.38-6.08,4.58,4.58,0,0,0-4.19-2.18,9.48,9.48,0,0,0-3.46.54,17.4,17.4,0,0,0-3,1.52l.06,27.19-9.38,0-.11-52.48,9.37-4.13Z"/><path class="cls-3" d="M567.91,711.07c-.43.1-1,.22-1.8.35s-1.6.24-2.49.35-1.79.18-2.71.23-1.75.08-2.52.08A9.38,9.38,0,0,1,554,711a12.58,12.58,0,0,1-3.61-2.8,14,14,0,0,1-2.46-3.87A10.86,10.86,0,0,1,547,700a12.57,12.57,0,0,1,1.72-7,12.36,12.36,0,0,1,4.39-4.15,16.9,16.9,0,0,1,5.94-1.95,47.17,47.17,0,0,1,6.39-.47v-1.59a3,3,0,0,0-1-2.28,3.69,3.69,0,0,0-2.63-.91,17.07,17.07,0,0,0-5.16.89,16.8,16.8,0,0,0-5.29,2.86l-3.84-8a23.56,23.56,0,0,1,8-3.4,36.67,36.67,0,0,1,7.39-.81,16,16,0,0,1,3.86.49,11.25,11.25,0,0,1,3.86,1.73,9.7,9.7,0,0,1,3,3.41,11.38,11.38,0,0,1,1.21,5.51l.06,29.09Zm-2.49-16.4a26.34,26.34,0,0,0-3.24.2,9.47,9.47,0,0,0-2.85.77,5,5,0,0,0-2,1.64,4.63,4.63,0,0,0-.75,2.73,4.31,4.31,0,0,0,.83,2.62,2.5,2.5,0,0,0,2.06,1.1c.48,0,1,0,1.63-.08s1.17-.12,1.72-.2,1.08-.16,1.56-.27a6.38,6.38,0,0,0,1.08-.3Z"/><path class="cls-3" d="M589.83,675.4a30.21,30.21,0,0,1,4.75-1.38,28.12,28.12,0,0,1,5.56-.54q6.63,0,10.65,3.88t4,12l0,22.25-9.37,0,0-21a10.28,10.28,0,0,0-1.6-6.22,5,5,0,0,0-4.19-2.12,14.91,14.91,0,0,0-6.85,1.31l.06,28-9.37,0-.09-39.73,6.43,3.63Z"/><path class="cls-3" d="M634.33,674.46l8.51,0v8.21l-8.5,0,0,15.87a24.13,24.13,0,0,0,.19,3.69,1.15,1.15,0,0,0,1.26,1.09,6.73,6.73,0,0,0,2.74-.57q1.29-.57,3-1.56l3.62,7.74c-.77.4-1.62.81-2.56,1.22s-1.87.76-2.81,1.07-1.83.54-2.67.72a11.35,11.35,0,0,1-2.12.28,11.88,11.88,0,0,1-3.61-.57,8.88,8.88,0,0,1-5.53-4.77,9.9,9.9,0,0,1-.91-4.36l0-19.83H619.2l0-8.2H625V667l9.36-5.56Z"/><path class="cls-3" d="M661.57,662.25,653,671.54l-8.6-9.25,8.56-9.14Zm-4.08,49.23-9.45,0-.08-36,9.44-4.13Z"/><path class="cls-3" d="M675.71,699.66c0,1.63.31,2.65.94,3.08a3.41,3.41,0,0,0,2,.64,5.76,5.76,0,0,0,2.67-.77,20.18,20.18,0,0,0,2.74-1.75l-.77,9.73a5.51,5.51,0,0,1-2.46,1.1,13.9,13.9,0,0,1-2.95.35,12.08,12.08,0,0,1-3.83-.67,12.28,12.28,0,0,1-3.75-2.08,11.58,11.58,0,0,1-2.86-3.45,9.91,9.91,0,0,1-1.13-4.79l-.08-42.15,9.44-3.14Z"/><path class="cls-3" d="M698.79,699.61c0,1.63.31,2.65.94,3.08a3.41,3.41,0,0,0,1.95.64,5.76,5.76,0,0,0,2.67-.77,19.48,19.48,0,0,0,2.73-1.75l-.76,9.73a5.51,5.51,0,0,1-2.46,1.1,14,14,0,0,1-3,.35,11.82,11.82,0,0,1-3.82-.68,12,12,0,0,1-3.75-2.07,11.49,11.49,0,0,1-2.86-3.46,9.85,9.85,0,0,1-1.13-4.78l-.09-42.15,9.45-3.14Z"/><path class="cls-3" d="M727.66,709.72a29,29,0,0,1-5,7.61,26.64,26.64,0,0,1-5.37,4.5A17.71,17.71,0,0,1,712.4,724c-1.54.38-2.74.66-3.61.81L705.17,717a28.4,28.4,0,0,0,3.89-1,16.58,16.58,0,0,0,3.61-1.67,16.14,16.14,0,0,0,3.31-2.78,18,18,0,0,0,2.87-4.38c.48-.86.94-1.74,1.37-2.62s.72-1.51.86-1.86l-13.54-26.63,7.92-4.73L725.82,692l9.62-20.76,7.94,4.7Z"/><path class="cls-11" d="M338.23,790.51a16.24,16.24,0,0,0-3.08-3,28.58,28.58,0,0,0-4-2.55,27.4,27.4,0,0,0-4.27-1.78,18.3,18.3,0,0,0-3.75-.83l.06,23.36q12.33,3.71,18.59,10.26T348,832.91a30.7,30.7,0,0,1-1.3,8.23,26.39,26.39,0,0,1-4.51,8.86,28.67,28.67,0,0,1-21.83,11.18l-14,12.19,0-12.71a49.79,49.79,0,0,1-13.85-4.33,48.69,48.69,0,0,1-12.3-8.75l8-14.25a41.79,41.79,0,0,0,9,7,31.81,31.81,0,0,0,9.12,3.09l-.05-25.58a45.1,45.1,0,0,1-11.3-5,31.3,31.3,0,0,1-7.49-6.55,23.55,23.55,0,0,1-4.22-7.8,29.55,29.55,0,0,1-1.33-8.78,25.54,25.54,0,0,1,1.36-7.81A23.26,23.26,0,0,1,287.8,774a27.45,27.45,0,0,1,8.39-6.37,32,32,0,0,1,13-3.14l14.15-11.92,0,12.71a33.8,33.8,0,0,1,12,3.85,39.47,39.47,0,0,1,10.19,7.58Zm-32.17-8.08a6.34,6.34,0,0,0-5.17,2.83,9.54,9.54,0,0,0-1.89,5.61,8.88,8.88,0,0,0,1.39,4.35q1.38,2.41,5.71,4.21Zm17.33,61.19a7.71,7.71,0,0,0,5.37-3,10,10,0,0,0,2.22-6.57,9.28,9.28,0,0,0-1.72-5.8,14.65,14.65,0,0,0-5.78-4Z"/><path class="cls-11" d="M427.23,861.21l-17.45,0-.2-95L427,756Z"/><path class="cls-11" d="M458.09,868.88l-15.92-16L457.63,836l16,15.86Z"/><path class="cls-11" d="M627.71,833.19a49.38,49.38,0,0,1-7.84,15.63,34,34,0,0,1-11.53,9.77,30.41,30.41,0,0,1-13.9,3.35,31.64,31.64,0,0,1-14.71-3.42,33.19,33.19,0,0,1-11.51-9.86,49.19,49.19,0,0,1-7.51-15.39,70.12,70.12,0,0,1-2.73-20A83.8,83.8,0,0,1,560,794.64a55.09,55.09,0,0,1,6.53-16.54,37.84,37.84,0,0,1,11.2-11.91,28.32,28.32,0,0,1,16.2-4.6,28,28,0,0,1,16.34,4.74,38.57,38.57,0,0,1,11.32,12.13,59.19,59.19,0,0,1,6.6,16.3,73.56,73.56,0,0,1,2.19,17.34A68.1,68.1,0,0,1,627.71,833.19ZM611,799.7a45.77,45.77,0,0,0-3.37-10.91A23,23,0,0,0,602,781a12,12,0,0,0-8.14-3,11.47,11.47,0,0,0-7.21,2.57,21.35,21.35,0,0,0-5.63,7.06,41.69,41.69,0,0,0-3.66,10.72,65.54,65.54,0,0,0-1.28,13.42,67.42,67.42,0,0,0,1.34,13.82,43.24,43.24,0,0,0,3.63,10.7,19.25,19.25,0,0,0,5.6,6.9,11.81,11.81,0,0,0,7.22,2.4,12.43,12.43,0,0,0,7.93-2.78,21.25,21.25,0,0,0,5.76-7.48A43.53,43.53,0,0,0,611,824.58,65.63,65.63,0,0,0,612.18,812,68.4,68.4,0,0,0,611,799.7Z"/><path class="cls-11" d="M710.53,833a49.55,49.55,0,0,1-7.84,15.64,34.08,34.08,0,0,1-11.53,9.76,30.31,30.31,0,0,1-13.9,3.35,31.37,31.37,0,0,1-14.71-3.42A33.19,33.19,0,0,1,651,848.47a49.19,49.19,0,0,1-7.51-15.39,69.37,69.37,0,0,1-2.73-20,82.63,82.63,0,0,1,2.06-18.59,54.76,54.76,0,0,1,6.53-16.53A37.74,37.74,0,0,1,660.58,766a28.37,28.37,0,0,1,16.2-4.6,28,28,0,0,1,16.35,4.74,38.35,38.35,0,0,1,11.31,12.14,59,59,0,0,1,6.6,16.29,73.58,73.58,0,0,1,2.2,17.34A68,68,0,0,1,710.53,833Zm-16.67-33.48a46.46,46.46,0,0,0-3.37-10.92,23,23,0,0,0-5.66-7.79,12,12,0,0,0-8.14-3,11.56,11.56,0,0,0-7.22,2.57,21.55,21.55,0,0,0-5.63,7.07,41.43,41.43,0,0,0-3.65,10.72,65.35,65.35,0,0,0-1.29,13.41,67.32,67.32,0,0,0,1.35,13.82,42.7,42.7,0,0,0,3.63,10.7,19.06,19.06,0,0,0,5.59,6.9,11.85,11.85,0,0,0,7.22,2.4,12.38,12.38,0,0,0,7.94-2.78,21.28,21.28,0,0,0,5.76-7.48,42.85,42.85,0,0,0,3.45-10.79A66.34,66.34,0,0,0,695,811.82,68.31,68.31,0,0,0,693.86,799.52Z"/><path class="cls-11" d="M537,840.38a32.65,32.65,0,0,1-16.7,16.88,28.64,28.64,0,0,1-11.89,2.53A56.06,56.06,0,0,1,494.52,858a47.9,47.9,0,0,1-13.21-5.73L489.05,838a54.82,54.82,0,0,0,9.22,3.87,31.34,31.34,0,0,0,9.47,1.44,13.61,13.61,0,0,0,5.34-1.06,13.34,13.34,0,0,0,4.47-3,14.75,14.75,0,0,0,3.08-4.64,15.12,15.12,0,0,0,1.13-5.91c0-5.34-1.65-9.45-4.93-12.3s-7.61-4.43-13-4.72l-5.1-15a31.43,31.43,0,0,0,8.22-.21,20.48,20.48,0,0,0,6.67-2.25,12.22,12.22,0,0,0,4.48-4.15,11.36,11.36,0,0,0,1.6-6.18,9.31,9.31,0,0,0-.94-4.43,8.67,8.67,0,0,0-2.4-2.88,9.21,9.21,0,0,0-3.4-1.62,16.91,16.91,0,0,0-4.07-.49,15.93,15.93,0,0,0-8.08,2.39,62.11,62.11,0,0,0-7.55,5.21l-7.48-14.77a57.8,57.8,0,0,1,11.09-6.49,28.83,28.83,0,0,1,11.75-2.53,39.51,39.51,0,0,1,10.48,1.41,28,28,0,0,1,9.21,4.37,21.86,21.86,0,0,1,6.57,7.6,23.22,23.22,0,0,1,2.47,11.1,24.74,24.74,0,0,1-3.33,13.08,20.94,20.94,0,0,1-8.81,8.15,12.63,12.63,0,0,1,5.4,3.1,24,24,0,0,1,4.55,5.77,35.27,35.27,0,0,1,3.13,7.38"/></svg>