<svg id="Capa_1" data-name="Capa 1" xmlns="http://www.w3.org/2000/svg" xmlns:xlink="http://www.w3.org/1999/xlink" viewBox="0 0 696.68 312.31"><defs><style>.cls-1{fill:#ce0074;}.cls-2{fill:#fcfafa;}.cls-3{fill:#3e2723;}.cls-4,.cls-7{fill:#fff;}.cls-5{fill:#702516;}.cls-6{fill:url(#Degradado_sin_nombre);}.cls-7{opacity:0.1;isolation:isolate;}</style><linearGradient id="Degradado_sin_nombre" x1="375.15" y1="777.93" x2="375.15" y2="832.98" gradientTransform="translate(-41.24 -676.34)" gradientUnits="userSpaceOnUse"><stop offset="0" stop-color="#fff"/><stop offset="1"/></linearGradient></defs><title>logo</title><path class="cls-1" d="M379.76,243.66a39.87,39.87,0,0,1,.34-5c-9.13-1.49-18.19-3.13-27.12-4.83C199.41,204,149,192,59.29,232.63c74.76-23.85,156.17-7.53,281.7,24.69,19.05,4.9,37.11,9.09,54.3,12.78C385.64,265.27,379.76,255.76,379.76,243.66Zm296-74.31h0c14.73,69.55-99.47,88.08-223.8,78.07-9.92,20.58-26,25.9-39.44,26.19C737.79,337.2,713.52,175,675.76,169.35Z" transform="translate(-0.35)"/><polygon class="cls-2" points="325.52 43.97 325.51 44.02 291.7 48.87 291.69 48.87 284.7 82.87 284.35 82.87 292.23 44.58 325.52 43.97"/><path class="cls-3" d="M653.61,164.84c0,32-21.72,42.59-40.71,42.59-27.52,0-32.14-17.77-32.14-32.72,0-14.55,8.52-23.42,16.65-23.42,7.86,0,12,3.19,12,10.36a11.28,11.28,0,0,1-11.06,11.07c-2.33,0-5.13-.71-6.26-3.19,0,11.57,4.6,18.45,13.39,18.45,10.2,0,14.59-5.68,14.59-22.92,0-13.71-2.57-21.3-5.1-66.37h0l.3-.48c.29,5,.57,9.62.85,13.78h0c.13,2.09.27,4.07.41,6,0,.37.05.75.08,1.12.1,1.37.2,2.71.3,4v.5c0,.46.07.91.11,1.36s.07.89.11,1.32c.07.87.14,1.72.21,2.54.17,2.06.35,4,.52,5.77a9.5,9.5,0,0,0,.1,1.06v.25c0,.55.11,1.09.16,1.62s.09,1,.14,1.42.11,1.08.16,1.6v0a16.09,16.09,0,0,0,.17,1.73h0v0q16.32,2.9,34.19,6.36C653.35,154.81,653.61,159.45,653.61,164.84Z" transform="translate(-0.35)"/><path class="cls-4" d="M615,98.6l.3-.48v.08l-.3.48h0V98.6Z" transform="translate(-0.35)"/><path class="cls-4" d="M652.89,148.61h0Q635,145.17,618.7,142.3v-.05C629.58,144.18,641,146.25,652.89,148.61Z" transform="translate(-0.35)"/><path class="cls-3" d="M555.69,132.46l-1-.14h0c-2.09-1.88-3.09-4.94-3.09-9.54,0-6.68,2.53-10.85,6.46-12.85-.24-5.34-1-9-2.55-11.25a8.56,8.56,0,0,0-.7-.89,6.33,6.33,0,0,0-2.33-1.59h-.06a2,2,0,0,0-.34-.12,2.91,2.91,0,0,0-.39-.12,2.59,2.59,0,0,0-.4-.09,9.61,9.61,0,0,0-2-.19h-.19c5.7.07,8.15,4.08,8.63,14.25-3.94,2-6.47,6.17-6.47,12.85,0,6.17,1.87,9.58,5.53,11.07-3.46,28.85-14.79,51-26.12,51-8.79,0-11.79-3.69-11.79-20,0-10,2.33-23.53,6.23-36q-6.25-.63-12.27-1.15l-8.58-.69-7.67-.54h-.08c-.64,0-1.28-.07-1.91-.12l-1.9-.11h0c.73-2,1.52-3.92,2.37-5.85.77-1.76,1.6-3.5,2.47-5.21.18-.37.37-.73.56-1.09.57-1.1,1.16-2.18,1.78-3.24.32-.57.66-1.13,1-1.69q.94-1.56,1.95-3.06l.66-1,.25-.36.85-1.18c.2-.29.41-.57.63-.85l.64-.84.74-.94.58-.7c.21-.27.44-.54.68-.81s.45-.54.69-.79a55.15,55.15,0,0,1,4.19-4.32,52,52,0,0,1,9.57-7.13h0c.43-.26.87-.5,1.32-.73l1-.53,1.15-.56.39-.19c.52-.24,1-.47,1.57-.69h.11c.62-.26,1.25-.51,1.88-.74l1-.36,1-.34h0c.68-.22,1.36-.42,2-.6s1.43-.37,2.16-.53l1-.22c-39.75,7.54-52.66,60.18-52.66,86.4,0,1,.06,2,.06,2.91-6.06,14.9-14,21.58-25.91,26.12l14.36-71.75A736.83,736.83,0,0,0,395,127h0a18.32,18.32,0,0,1-.36-3.77v-1.45a8.26,8.26,0,0,1,.09-1c0-.33.07-.55.11-.82a.63.63,0,0,1,.05-.3c.07-.38.15-.74.23-1.1a7.94,7.94,0,0,1,.29-1,4,4,0,0,1,.17-.49,4.62,4.62,0,0,1,.23-.62c.11-.28.22-.55.35-.81s.29-.58.45-.86a6.12,6.12,0,0,1,.43-.69,6,6,0,0,1,.46-.66c.24-.31.49-.61.74-.9l.39-.4a11.2,11.2,0,0,1,3.09-2.19c-.47-10.25-2.74-14.25-8.8-14.25h-.16c5.94.07,8.14,4.07,8.57,14.22-4.13,2-7.13,6.46-7.13,13.34,0,4.9,1.4,9.09,6.19,10.29-3.66,29.1-15.45,51.25-26.78,51.25-8.79,0-11.79-3.69-11.79-19.95,0-9.85,2.35-23.22,6.34-35.57-11.14,1-22.55,2.17-34.49,3.39v-.06h-.06c8.19-25.73,25.64-51.76,57.1-52-47.63,0-63.36,59.06-63.36,87.38a17.33,17.33,0,0,0,.07,1.91c-4.26,8.1-10.73,13.63-17.59,13.63-6.53,0-9.53-2.27-9.53-9.15a38.73,38.73,0,0,1,.93-7.88l6.26-31.24c-10.63,1.05-21.74,2.13-33.49,3.2h0l9.16-45.72h-.35L269,161.83v.07c-5.13,12.78-9.26,21.65-19.46,21.65-6.92,0-9.19-4.19-9.19-10.36,0-7.46,3.22-19.63,6.22-32.39q-15,1.2-31.49,2.3h0c2.2-9.95,4.14-19.46,4.14-26.27,0-6.37-1.71-10.46-5.09-11.94a7.61,7.61,0,0,0-1.75-.5l-.48-.07h-1c5.29.21,8,4.58,8,12.56,0,15.75-10.39,46-10.39,62.75,0,14,7.13,27.82,27.25,27.82,9.12,0,21.25-2.8,32.18-20.8,2.68,14.48,12.28,20.8,24,20.8,9.53,0,25.19-3.2,37.91-22.71C335,200.49,348,207,364.5,207c28.45,0,51.57-28.53,55.23-74.1a91,91,0,0,0,19.66-5.75l-16,79.8c-16.45,5.33-35.31,14.7-37.64,32.86a3.14,3.14,0,0,0-.13.86c0,.36-.07.64-.07,1a19,19,0,0,0-.07,2,12.7,12.7,0,0,0,.07,1.63v.36a8.57,8.57,0,0,0,.13,1.34v.29c.94,7.24,4.53,12.92,10.53,16.46.07.07.13.07.2.15.33.21.67.35,1.07.56a30.33,30.33,0,0,0,13.85,3.06c15.26,0,34.72-6.61,41.64-41.81l3.47-17.74c9.93-2.9,21.46-8.28,30.58-22.28,5.32,15.12,18.12,21.29,34.32,21.29,28,0,50.49-27.48,54.57-71.61h0C569,134.28,562.24,133.35,555.69,132.46ZM419.48,226.38c-3,14.55-8.59,21.93-13.39,21.93-5.13,0-7.86-4.68-7.86-8.16,0-9.79,10.86-16.25,22.65-20.87Z" transform="translate(-0.35)"/><polygon class="cls-4" points="282.86 92.7 282.85 92.73 282.5 92.73 282.51 92.7 282.86 92.7"/><path class="cls-4" d="M307.58,135.24h0c-10.63,1-21.74,2.13-33.49,3.2h0Q291.71,136.85,307.58,135.24Z" transform="translate(-0.35)"/><path class="cls-4" d="M368.24,129.18v.06c-11.14,1-22.55,2.17-34.49,3.39v-.06C345.73,131.36,357.1,130.2,368.24,129.18Z" transform="translate(-0.35)"/><path class="cls-4" d="M401.78,109.91h0a12.13,12.13,0,0,0-3.09,2.17A11.13,11.13,0,0,1,401.78,109.91Z" transform="translate(-0.35)"/><path class="cls-4" d="M494.56,126.38l-1.9-.11h0Z" transform="translate(-0.35)"/><path class="cls-4" d="M504.22,127.05q-3.87-.3-7.67-.54Z" transform="translate(-0.35)"/><path class="cls-4" d="M512.69,94.37q-2.19,2.05-4.19,4.32A55.15,55.15,0,0,1,512.69,94.37Z" transform="translate(-0.35)"/><path class="cls-4" d="M522.26,87.24a54.61,54.61,0,0,0-9.57,7.13A52,52,0,0,1,522.26,87.24Z" transform="translate(-0.35)"/><path class="cls-4" d="M526.53,85.05l-.75.35-1.15.56c.5-.26,1-.51,1.54-.75l.45-.2,1.12-.49Z" transform="translate(-0.35)"/><path class="cls-4" d="M525.07,128.88h0q-6.26-.63-12.27-1.15Q518.81,128.26,525.07,128.88Z" transform="translate(-0.35)"/><path class="cls-4" d="M537.14,81.65l-1.1.23,1-.22Z" transform="translate(-0.35)"/><path class="cls-4" d="M575.93,135.27h0c-7-1-13.69-2-20.24-2.85C562.24,133.3,569,134.24,575.93,135.27Z" transform="translate(-0.35)"/><path class="cls-3" d="M188.92,144.71c-3.55,17.44-8.81,43.21-11.36,55.9-2.33-.06-4.66-.14-6.93-.14-9,0-17.72.43-26.25,1.28C148.45,178,168,82.87,168,82.87h.33c-.22,1.11-6.65,32.35-12.86,63.22h0Q171.45,145.66,188.92,144.71Z" transform="translate(-0.35)"/><path class="cls-4" d="M168.38,82.87s-6.55,31.8-12.86,63.22h0C161.73,115.22,168.16,84,168.38,82.87Z" transform="translate(-0.35)"/><path class="cls-4" d="M79.2,108.19c.7.09,1.39.2,2.08.31C80.59,108.39,79.9,108.28,79.2,108.19Z" transform="translate(-0.35)"/><path class="cls-3" d="M133.35,146.6l-11.42,58.34s-19.65,3.91-32.58,9.16c-.8.28-1.53.5-2.33.78,3.46-19.09,19-98.3,19-98.3a86.41,86.41,0,0,0-24.79-8.08,81.43,81.43,0,0,1,9,1.93,95.72,95.72,0,0,1,16.1,6.19h0v.08a.81.81,0,0,1,0,.22v.25a.7.7,0,0,1-.06.33c-.06.12,0,.25-.08.4a5.93,5.93,0,0,0-.19,1,4,4,0,0,1-.12.62c0,.22-.08.42-.13.65-.18.9-.39,2-.62,3.15l-.19,1c-.44,2.23-1,4.86-1.53,7.82-.08.43-.17.87-.26,1.32-.17.87-.35,1.77-.52,2.69-.09.46-.18.93-.28,1.4-.46,2.35-1,4.84-1.45,7.43-.11.51-.21,1-.31,1.54h0c3.57.07,7.24.12,11,.13h14.59C128.49,146.65,130.91,146.63,133.35,146.6Z" transform="translate(-0.35)"/><path class="cls-4" d="M100.57,146.48c.1-.52.2-1,.31-1.54l-.3,1.54Z" transform="translate(-0.35)"/><path class="cls-4" d="M106.42,116.62Z" transform="translate(-0.35)"/><path class="cls-4" d="M133.35,146.59h0c-2.44,0-4.86,0-7.24,0Z" transform="translate(-0.35)"/><path class="cls-3" d="M45,220.2c0,7.88,1.87,11.57,3.27,13.84-12.46,0-31-.49-31-26.12,0-22.13,13.84-62.51,34-100.18h.32C45.51,119.23,40,131,35.2,142.36h0c8,.91,16.54,1.7,25.83,2.36C51.3,173.92,45,202.28,45,220.2Z" transform="translate(-0.35)"/><path class="cls-4" d="M51.66,107.74C45.54,119.23,40,131,35.23,142.36h0C40,131,45.51,119.23,51.63,107.74Z" transform="translate(-0.35)"/><path class="cls-3" d="M160.33,8.72l-3.06,15.64c-.79-.29-1.59-.55-2.4-.79-1.2-.37-2.4-.69-3.62-1h0A50,50,0,0,0,140,21.3c-27,0-57.09,33.22-80.41,72.61h-.31c23.3-39.35,39.43-63.63,67.11-76.41C139,11.66,155.2,8.72,160.33,8.72Z" transform="translate(-0.35)"/><path class="cls-4" d="M139.93,21.33a50,50,0,0,1,11.3,1.27,50.56,50.56,0,0,0-11.3-1.24c-27,0-57.09,33.22-80.41,72.61h0C82.84,54.55,112.93,21.33,139.93,21.33Z" transform="translate(-0.35)"/><path class="cls-4" d="M154.87,23.57c-1.2-.37-2.4-.69-3.62-1C152.47,22.88,153.68,23.2,154.87,23.57Z" transform="translate(-0.35)"/><path class="cls-1" d="M468.92,19C483,19,494.5,31.27,494.5,46.31c0,14.84-11.46,27-25.58,27s-25.38-12.13-25.38-27S454.93,19,468.92,19Z" transform="translate(-0.35)"/><path class="cls-3" d="M90.1,272.07a4.15,4.15,0,0,1-.91,2.73A2.7,2.7,0,0,1,87,275.89a1.21,1.21,0,0,1-.67-.14c-.13-.1-.19-.33-.19-.71a3.19,3.19,0,0,0-.62-2.15,2.56,2.56,0,0,0-2-.69q-3,0-5.37,3.44a13.6,13.6,0,0,0-2.39,7.95c0,3,.89,5.21,2.65,6.62s4.58,2.14,8.43,2.21l-1.1,4.24a4.21,4.21,0,0,0-1,.12h-.15a25.86,25.86,0,0,1-7.11-.88,13,13,0,0,1-5-2.59,14.69,14.69,0,0,1-4.56,2.41,19.94,19.94,0,0,1-5.63.94l1.19-4.26a14.85,14.85,0,0,0,3.37-.57,11.77,11.77,0,0,0,3-1.36,11.14,11.14,0,0,1-1-2.91,18.79,18.79,0,0,1-.34-3.74,17.57,17.57,0,0,1,4.59-12q4.59-5.15,10.51-5.15a7.25,7.25,0,0,1,4.81,1.5A4.84,4.84,0,0,1,90.1,272.07Z" transform="translate(-0.35)"/><polygon class="cls-5" points="119.65 292.43 118.5 296.66 119.61 292.45 119.64 292.44 119.65 292.43"/><path class="cls-3" d="M119.82,276.58c.65-1.59,1.4-3.28,2.25-5a17.24,17.24,0,0,0,1.28-3c0-.67-.51-1.25-1.53-1.75a8.14,8.14,0,0,0-3.57-.74,1.63,1.63,0,0,0-1.12.35,3.87,3.87,0,0,0-.77,1.64l-.42,1.42a7.83,7.83,0,0,0-2.63-1.93A8.31,8.31,0,0,0,110,267a13.31,13.31,0,0,0-7.44,2.38,23.58,23.58,0,0,0-6.56,6.9,28.11,28.11,0,0,0-3,6.1,17.78,17.78,0,0,0-1.07,5.73q0,.81.06,1.53a7.91,7.91,0,0,0,.18,1.37,9.06,9.06,0,0,1-2.33,1,15,15,0,0,1-2.91.44l-1.16,4.21a23,23,0,0,0,4.44-.56,12.54,12.54,0,0,0,3.38-1.31,4.36,4.36,0,0,0,2,1.49,7.89,7.89,0,0,0,3,.5,9.87,9.87,0,0,0,6.66-2.77,31.47,31.47,0,0,0,6.27-8.77c-.55,1.68-.94,3.06-1.18,4.13a12.44,12.44,0,0,0-.36,2.71,3.68,3.68,0,0,0,1.84,3.58q1.89,1,6.54,1h.54l1.11-4.23a8.87,8.87,0,0,1-3.33-.74,1.92,1.92,0,0,1-.74-1.75,20.18,20.18,0,0,1,1-5.22A83.64,83.64,0,0,1,119.82,276.58Zm-12.61,10.25c-2.31,3.07-4.44,4.6-6.37,4.61a1.74,1.74,0,0,1-1.54-.74,4.23,4.23,0,0,1-.5-2.29,14.14,14.14,0,0,1,1.11-5,22.91,22.91,0,0,1,3-5.41,20.21,20.21,0,0,1,4.33-4.38,7.25,7.25,0,0,1,4-1.61,4.09,4.09,0,0,1,1.58.32,6,6,0,0,1,1.58,1A65,65,0,0,1,107.21,286.83Z" transform="translate(-0.35)"/><path class="cls-5" d="M150.38,296.65l1.15-4.2h0ZM120,292.44h0l-1.11,4.21,1.15-4.23Z" transform="translate(-0.35)"/><path class="cls-2" d="M120,292.44l-1.14,4.22,1.15-4.23Z" transform="translate(-0.35)"/><path class="cls-3" d="M145,291.31a30.11,30.11,0,0,0,6.37-8.09,18,18,0,0,0,2.19-8.37,8.69,8.69,0,0,0-2-5.92,6.39,6.39,0,0,0-5.06-2.28,8.52,8.52,0,0,0-6,2.74q-2.83,2.75-6.62,9.65c.67-2.31,1.54-5.2,2.63-8.67a53.92,53.92,0,0,0,2-7.16,1.15,1.15,0,0,0-.64-1.07,4.44,4.44,0,0,0-2-.35q-4.11,0-5.56,8.11c-.4,2.27-.75,4.14-1.07,5.61l-.15.76Q125.79,292,120,292.42h0l-1.15,4.23a12.89,12.89,0,0,0,2.75-.48,8.94,8.94,0,0,0,2.25-1.07q-1.09,4.06-2.92,9.51c-1.22,3.63-1.83,5.85-1.82,6.64a.88.88,0,0,0,.51.74,2.46,2.46,0,0,0,1.27.3,9.08,9.08,0,0,0,3.86-.58,3.1,3.1,0,0,0,1.47-2.26c.08-.34.18-.82.3-1.45A120.48,120.48,0,0,1,130,294.66a11.73,11.73,0,0,0,2.46,1.15,7.85,7.85,0,0,0,2.45.39,12.59,12.59,0,0,0,3.23-.45,16.08,16.08,0,0,0,3.2-1.28,13.62,13.62,0,0,0,3.82,1.64,17.94,17.94,0,0,0,4.5.54h.74l1.15-4.25h0a21.62,21.62,0,0,1-3.59-.27A12.63,12.63,0,0,1,145,291.31Zm-4.38-1.73a14,14,0,0,0-2.3-.74,8.42,8.42,0,0,0-2-.24,9.37,9.37,0,0,0-2.18.28,11.45,11.45,0,0,0-2.32.89,51.53,51.53,0,0,1,6.17-12.6c2.24-3.15,4.27-4.73,6.08-4.72a2.54,2.54,0,0,1,2.19,1.15,5.43,5.43,0,0,1,.8,3.14,14.49,14.49,0,0,1-1.73,6.5,23.06,23.06,0,0,1-4.75,6.34Z" transform="translate(-0.35)"/><path class="cls-5" d="M151.53,292.42l-1.15,4.24h0l1.15-4.26Z" transform="translate(-0.35)"/><path class="cls-3" d="M179.55,292.45l-1.16,4.21h-.89q-5.33,0-7.67-1.31a4.52,4.52,0,0,1-2.34-4.25q0-2.61,2.24-7.77t2.24-6.61a2.07,2.07,0,0,0-.77-1.43,16.61,16.61,0,0,0-2.61-1.88q-4,12.21-8.19,17.55c-2.8,3.56-6.13,5.45-10,5.7l1.15-4.26a7.9,7.9,0,0,0,3.52-1.66,15.17,15.17,0,0,0,3.21-3.66q3.06-4.66,7-16.19a4.64,4.64,0,0,1-1-1.61,5.67,5.67,0,0,1-.33-2,6,6,0,0,1,1.17-3.77,3.56,3.56,0,0,1,3-1.5,3.49,3.49,0,0,1,2.57.95,3.42,3.42,0,0,1,.95,2.52,6.59,6.59,0,0,1-.15,1.4,5.7,5.7,0,0,1-.47,1.31c1,.68,2.31,1.49,3.91,2.43q4.35,2.49,4.35,5,0,2.08-2.37,7.35t-2.37,7.16a1.68,1.68,0,0,0,.82,1.6A14.23,14.23,0,0,0,179.55,292.45Z" transform="translate(-0.35)"/><path class="cls-3" d="M203.17,251.6a5.75,5.75,0,0,1-1.36,3.91,4.23,4.23,0,0,1-3.37,1.58,3.44,3.44,0,0,1-2.65-1,4,4,0,0,1-.94-2.83,6,6,0,0,1,1.38-4,4.18,4.18,0,0,1,3.3-1.62,3.4,3.4,0,0,1,2.61,1.1A4,4,0,0,1,203.17,251.6Z" transform="translate(-0.35)"/><path class="cls-3" d="M193.76,285.6a19.12,19.12,0,0,0-1.07,4.29,2,2,0,0,0,.83,1.85,8.15,8.15,0,0,0,3.41.68l-1.17,4.24h-1A12.27,12.27,0,0,1,189,295.6a4.41,4.41,0,0,1-2.27-3.39,12.44,12.44,0,0,1-3.77,3.23,10.66,10.66,0,0,1-4.52,1.22l1.12-4.26q3.49-.13,6-4.12t4.66-13.14c.22-1,.48-2.19.77-3.69.6-3.17,2.54-4.76,5.84-4.76a3.45,3.45,0,0,1,1.76.36,1.19,1.19,0,0,1,.61,1.06,13.55,13.55,0,0,1-1,3.69c-.68,1.83-1.16,3.25-1.46,4.26l-2.84,9.15Z" transform="translate(-0.35)"/><path class="cls-3" d="M223.63,272.07a4.09,4.09,0,0,1-.9,2.73,2.7,2.7,0,0,1-2.18,1.09,1.16,1.16,0,0,1-.66-.14c-.13-.1-.19-.33-.19-.71a3.13,3.13,0,0,0-.63-2.15,2.53,2.53,0,0,0-2-.69q-3,0-5.37,3.44a13.6,13.6,0,0,0-2.39,7.95c0,3,.89,5.21,2.65,6.62s4.58,2.14,8.43,2.21l-1.11,4.24a4.21,4.21,0,0,0-1,.12h-.14a25.86,25.86,0,0,1-7.11-.88,13,13,0,0,1-5-2.59,14.91,14.91,0,0,1-4.56,2.41,20.13,20.13,0,0,1-5.71.94l1.17-4.24h0a14.94,14.94,0,0,0,3.38-.57,11.77,11.77,0,0,0,3-1.36,11.52,11.52,0,0,1-1-2.91,18,18,0,0,1-.34-3.74,17.57,17.57,0,0,1,4.59-12q4.59-5.14,10.51-5.15a7.25,7.25,0,0,1,4.81,1.5A4.84,4.84,0,0,1,223.63,272.07Z" transform="translate(-0.35)"/><path class="cls-3" d="M249.3,291.79a9,9,0,0,0,3.29.63l-1.12,4.24h-.71c-3.23,0-5.61-.47-7.12-1.39a4.73,4.73,0,0,1-2.26-4.36,16,16,0,0,1,.86-4.16c.57-1.87,1.43-4.26,2.6-7.16l.24-.6a20.44,20.44,0,0,0,1.51-4.29,1,1,0,0,0-.25-.79,1.12,1.12,0,0,0-.79-.25q-1.74,0-5.4,4.73a48.87,48.87,0,0,0-6.39,11.5c-.38.91-.78,2-1.21,3.32a4.79,4.79,0,0,1-4.86,3.59,3.92,3.92,0,0,1-1.66-.24.84.84,0,0,1-.47-.83,3,3,0,0,1,.16-.84,12.31,12.31,0,0,1,.52-1.31,9.18,9.18,0,0,1-3,2.2,11.26,11.26,0,0,1-3.92.9l1.16-4.26a6.65,6.65,0,0,0,5-2.75c1.34-1.7,2.63-4.65,3.9-8.86l6.19-20.57c.45-1.47.94-3.29,1.48-5.48.92-3.79,2.53-5.69,4.82-5.68a10.3,10.3,0,0,1,3.22.33,1.17,1.17,0,0,1,.84,1.15,15.47,15.47,0,0,1-1.15,3.88q-.48,1.2-.72,1.86l-9.65,26.06q4.62-8,8.46-11.66t7.5-3.67a3.93,3.93,0,0,1,2.9,1.05,4.07,4.07,0,0,1,1,2.95q0,2.12-3.47,11.33l-.71,1.92a31,31,0,0,0-1.17,3.53,11.6,11.6,0,0,0-.42,2.34A1.76,1.76,0,0,0,249.3,291.79Z" transform="translate(-0.35)"/><path class="cls-3" d="M280.87,274.72a28.11,28.11,0,0,1-1.14,7.78,28.82,28.82,0,0,1-3.21,7.27,17.76,17.76,0,0,1-4.71,5.28,9.25,9.25,0,0,1-5.42,1.75,10.39,10.39,0,0,1-3.66-.58,6.94,6.94,0,0,1-2.65-1.78,19.17,19.17,0,0,1-4,1.59,21.43,21.43,0,0,1-4.57.65l1.18-4.26a15.15,15.15,0,0,0,2.92-.44,8.85,8.85,0,0,0,2.32-1,12.71,12.71,0,0,1-.53-2.19,16.73,16.73,0,0,1-.18-2.45,21.36,21.36,0,0,1,1.35-7.25,22.74,22.74,0,0,1,3.68-6.66,16.54,16.54,0,0,1,4.89-4.19,10.82,10.82,0,0,1,5.3-1.61,1.56,1.56,0,0,1,1,.3,1,1,0,0,1,.37.8c0,.46-.48,1.2-1.43,2.19a31,31,0,0,0-2.21,2.51,34.85,34.85,0,0,0-4.68,8.25,21.77,21.77,0,0,0-1.63,7.84,4.41,4.41,0,0,0,.73,2.71,2.35,2.35,0,0,0,2,1q3,0,6-4.65a20.37,20.37,0,0,0,3-10.52,3.56,3.56,0,0,1-2.25-1.17,3.64,3.64,0,0,1-.77-2.46,5.76,5.76,0,0,1,1.18-3.71,3.71,3.71,0,0,1,3-1.46,3.44,3.44,0,0,1,3.08,1.7A8.78,8.78,0,0,1,280.87,274.72Z" transform="translate(-0.35)"/><path class="cls-3" d="M307.22,292.42a10.89,10.89,0,0,1-2.13-.19,5.79,5.79,0,0,1-1.57-.57,11.59,11.59,0,0,0,2.23-4,14.48,14.48,0,0,0,.82-4.84,13.13,13.13,0,0,0-1.16-5.35,24.53,24.53,0,0,0-3.76-5.69,10.21,10.21,0,0,0,2.22-2.68,5.51,5.51,0,0,0,.74-2.68,3,3,0,0,0-.87-2.26,3.33,3.33,0,0,0-2.35-.83,5.92,5.92,0,0,0-4.27,1.76,5.78,5.78,0,0,0-1.77,4.23,5.31,5.31,0,0,0,.25,1.72,3.87,3.87,0,0,0,.84,1.37,87.8,87.8,0,0,1-9.52,14.25c-3.05,3.57-5.52,5.47-7.41,5.73l-1.13,4.27a14.91,14.91,0,0,0,3.7-1,12.9,12.9,0,0,0,3.14-1.9,9.34,9.34,0,0,0,3.44,2.23,11.93,11.93,0,0,0,4.38.8,13.66,13.66,0,0,0,3.12-.38,19.47,19.47,0,0,0,3.48-1.16,14.49,14.49,0,0,0,3,1.07,14.06,14.06,0,0,0,3.17.35h.86l1.15-4.26Zm-9.46-3a6.81,6.81,0,0,1-4.37,3,7.13,7.13,0,0,0-1.32-2.32,4.81,4.81,0,0,0-1.93-1.37,55,55,0,0,0,4.85-6.12,34.85,34.85,0,0,0,3.26-5.81,33.23,33.23,0,0,1,.83,3.55,17.7,17.7,0,0,1,.26,3A10.71,10.71,0,0,1,297.76,289.42Z" transform="translate(-0.35)"/><path class="cls-5" d="M37.62,270.53c0,3.35-1.08,4.47-2,5.12C34,274.81,32,273,32,271c0-2.42.7-4.84,3-4.84C36.71,266.16,37.62,268.53,37.62,270.53Z" transform="translate(-0.35)"/><path class="cls-2" d="M35,266.16c-2.31,0-3,2.42-3,4.84,0,2,2,3.81,3.67,4.65.92-.65,2-1.77,2-5.12C37.62,268.53,36.71,266.16,35,266.16Z" transform="translate(-0.35)"/><path class="cls-3" d="M61.42,291.55l-.87-.65c-.09-.09-.22,0-.35.14-.35.51-1.75,3.07-4.54,3.07-2.36,0-4.19-2-4.85-2.7-1.31-1.35-3-3.76-3.62-4.23a78.85,78.85,0,0,0,5.46-8.74c.61-1,1.35-1.21,2.66-1.21h.74c.26,0,.31-.14.31-.33v-1c0-.23,0-.37-.31-.37s-2.88.14-4.5.14c-2.27,0-4.62-.14-5-.14s-.3.09-.3.23v1.11c0,.19,0,.33.3.33h.57a1.34,1.34,0,0,1,1.35,1.31v.15a12.35,12.35,0,0,1-2.58,6.79c-2.31-3.67-5.24-7.12-8.6-8.65,2.45-1,5.15-3.53,5.24-6.14.09-3.16-2.62-6.46-7.51-6.46-4.1,0-8.29,4.28-8.34,7.95,0,2.33,1.4,4.37,4.37,6.46a24.18,24.18,0,0,0-4.46,3.26,11,11,0,0,0-3.66,7.91c0,3.48,3.93,8,10.12,8,5.59,0,8.13-3.67,10-5.53,2.31,2.79,4.23,5.53,9.17,5.53,5.5,0,8.42-4.32,9.21-5.86C61.51,291.74,61.51,291.6,61.42,291.55ZM35,266.16c1.75,0,2.66,2.37,2.66,4.37,0,3.35-1.08,4.47-2,5.12C34,274.81,32,273,32,271,32,268.58,32.65,266.16,35,266.16Zm-.26,28.09A6.36,6.36,0,0,1,29,288.06c-.09-3.85,2.09-7.25,3.53-8.18,3.32,2.09,7.38,6.93,9.48,10.65-1.55,1.72-3.46,3.72-7.31,3.72Z" transform="translate(-0.35)"/><path class="cls-6" d="M157.27,24.36,133.35,146.59h.56L158.19,24.74ZM120.71,39.3l-.51.32c-.34.21-.67.43-1,.66l-1.21.86c-.38.29-.77.58-1.16.89l-.08.07c-.34.26-.68.54-1,.82l-.25.22c-.26.22-.53.45-.79.69-.55.49-1.11,1-1.66,1.53L112,46.43c-.46.46-.93.94-1.39,1.43-.25.27-.51.54-.76.82s-.74.81-1.1,1.23-.59.66-.88,1c-.42.49-.84,1-1.26,1.51l-1.08,1.33q-.54.68-1.08,1.38l-1.33,1.76-.66.9c-.45.6-.89,1.22-1.33,1.84q-3,4.23-5.92,9l-1,1.6c-.33.54-.65,1.09-1,1.64l-.49.83-.35.61h0l-.9,1.57c-.31.53-.61,1.07-.91,1.6l-.9,1.62c-.46.81-.91,1.63-1.35,2.47l-.45.83c-.3.56-.6,1.12-.89,1.68-.59,1.13-1.18,2.26-1.77,3.41S84,88.81,83.4,90c-1.16,2.34-2.31,4.73-3.45,7.15.91.18,1.81.37,2.71.57s1.8.4,2.7.62h0c4.17,1,8.31,2.19,12.39,3.54l2.62.89c.87.31,1.74.62,2.6,1s1.72.65,2.58,1q.72.27,1.44.57l1.13.46v-.14a153.91,153.91,0,0,0-27.87-8.45c12.81-27.28,27.44-50,41.25-58.11v-.21h0A8.79,8.79,0,0,0,120.71,39.3ZM75.09,107.71h0c-5.17,12-9.94,24.56-14.06,37h.33c4.14-12.43,8.89-25,14.07-37ZM49.31,93.25c.85,0,1.74.06,2.68.1C51.05,93.3,50.16,93.26,49.31,93.25Zm4.21.19c.79,0,1.61.12,2.47.19C55.13,93.55,54.31,93.49,53.52,93.44ZM50,107.84c-1.31.1-2.59.22-3.82.37l-1.22.16-1.18.17c-.79.13-1.55.26-2.29.41-6,1.19-10.61,3.15-13.72,6.2a12.4,12.4,0,0,0-1.1,1.19,13.92,13.92,0,0,0-2.38,4.21h.23a1.51,1.51,0,0,1,.62.5l.24.32a9.6,9.6,0,0,1,1.07,2.21c.07.2.13.4.2.6s.14.47.2.71.12.49.17.73c.08.41.15.82.19,1.24a8.47,8.47,0,0,1,.08,1.23,8.07,8.07,0,0,1-.32,2.29,6.9,6.9,0,0,1-.54,1.39,4.13,4.13,0,0,1-.36.65,5.08,5.08,0,0,1-.42.61,3.79,3.79,0,0,1-.48.58,5.77,5.77,0,0,1-.42.44,5.86,5.86,0,0,1-.69.62q-.36.3-.75.57l-.54.34-.57.32-1,.48c-.35.15-.71.29-1.08.41s-.75.24-1.14.33l-.6.14-.91.17a20.66,20.66,0,0,1-2.72.24c7.19,0,12.92-3.69,12.92-9.58,0-3.41-1.8-7.59-3-7.59C27.51,112.51,36.57,109,50,107.84ZM648.83,75.2h-.35v.1c.24,5.44.48,10.48.72,15.17a9.18,9.18,0,0,0,.07,1.39c.06,1.23.12,2.44.18,3.62,0,1,.1,2,.15,3,0,.49.06,1,.08,1.46v.85a7.44,7.44,0,0,0,.07,1.19c0,.67.07,1.33.11,2,.06,1,.12,2.06.17,3s.11,2,.17,3c0,.57.07,1.14.1,1.7s.07,1.12.1,1.67q.17,2.82.33,5.4.07,1.17.15,2.28c0,.75.1,1.48.14,2.2s.09,1.29.13,1.91c.06.83.11,1.63.16,2.42a5.61,5.61,0,0,0,.08,1.16v.58a4.83,4.83,0,0,0,.07.94c0,.67.1,1.31.14,2l.12,1.63q.15,2.15.3,4.08l.09,1.08a5.1,5.1,0,0,0,.08,1.11c.08.36,0,.49.06.73,0,.48.06,1,.1,1.4l.06.71c0,.7.1,1.37.15,2,0,.32.05.63.07.94v.94a7.88,7.88,0,0,0,.09,1.2v.49l.35.07C652.36,136.29,650.7,117.89,648.83,75.2Zm-72.64,56.92c-.08,1.06-.16,2.11-.26,3.15h.33c.1-1.06.2-2.12.28-3.2,14.21-4.59,27.21-15.48,38.43-33.38h0v-.51C603.64,116.37,590.51,127.44,576.19,132.12ZM552.35,81c6.55.93,11.75,3.64,15.61,8.09a12.93,12.93,0,0,1,.94,1.14c.31.39.61.79.89,1.21l.52.8a8.39,8.39,0,0,1,.5.81c.33.54.64,1.11.94,1.69s.49,1,.72,1.51c0,.09.09.19.13.29a.29.29,0,0,1,0,.13c.19.44.38.88.55,1.34a1.34,1.34,0,0,1,.07.18q.27.69.51,1.41a1,1,0,0,1,0,.16l.36,1.13v.18c.07.23.14.46.2.7.13.44.25.89.36,1.34s.23,1,.33,1.45.17.75.23,1.13.13.63.19,1,.17,1,.23,1.48.13.84.18,1.26v.28a.06.06,0,0,1,0,.06,82,82,0,0,1,.59,9.53h.35C576.77,96.21,568.66,83.12,552.35,81Zm-3.48,14.63c-9.62,0-18.3,15.55-23.82,33.26h.34c5.21-16.68,13.21-31.45,22.16-33.11h.05a10.16,10.16,0,0,1,1.46-.14ZM227.18,81.87h0c.76,0,1.51.06,2.25.13C228.69,82,227.94,81.9,227.18,81.87Zm2.63.18c5.94.66,11.05,2.82,14.78,6.77a8.16,8.16,0,0,1,.79.87l.37.45a2.84,2.84,0,0,1,.37.47,11.9,11.9,0,0,1,.7,1l.66,1h0l.31.54a6,6,0,0,1,.3.56c.2.37.38.75.56,1.15s.36.79.52,1.2c.05.13.1.26.14.4l.06.15c.12.28.22.57.32.87h0c.13.39.25.79.37,1.2h0c.08.26.15.53.21.8s.15.56.21.84.08.34.11.52v.09c.07.32.13.64.19,1s.12.69.17,1,.07.47.1.71l.09.74a1.66,1.66,0,0,0,.05.41c0,.44.08.89.11,1.34s.06,1,.08,1.48v2c0,9.14-2.33,20.35-4.84,31.14H247c2.51-10.78,4.83-22,4.83-31.11C251.76,91.62,242.69,83.31,229.81,82.05Zm-19.27,22.23a8.92,8.92,0,0,0-1.16.07l-.56.08a8.15,8.15,0,0,0-1.11.26,5.05,5.05,0,0,0-.55.18l-.54.2a10.32,10.32,0,0,0-1.06.51l-.51.29a4.39,4.39,0,0,0-.51.32c-.34.22-.67.47-1,.72s-.68.54-1,.83c-.16.14-.32.29-.47.45s-.52.52-.77.8-.49.55-.72.84l-.12.15c-.22.26-.43.52-.63.8s-.47.63-.7,1h0l-.68,1c-.22.32-.36.57-.53.87l-.33.58c-.15.25-.29.51-.43.77s-.41.78-.61,1.18-.4.81-.59,1.22-.38.83-.56,1.26-.27.63-.4,1-.17.4-.25.61c-.27.67-.53,1.36-.78,2.06-.37,1-.71,2.1-1,3.18l-.42,1.43s-1.52,7.41-3.63,17.77h.36l3.62-17.75c3.45-12.29,9.6-22.54,17.87-22.64Zm-9.26-21.43-2.52,12.81.44-.52h0L201.61,83ZM392.63,95.66c-9.68,0-18.64,15.72-24.35,33.57h.36c5.68-17.73,14.57-33.37,24.18-33.54Zm29.78,24.87h-.13a4.26,4.26,0,0,1-1.52-.46c0-24.41-8.63-37.81-26.27-39.26a4.2,4.2,0,0,1-.86-.06h-.87c18.55.88,27.63,14.32,27.63,39.36a4.32,4.32,0,0,0,2.17.49Zm59-37.66-8.49,42.45h.34l8.53-42.45Zm-136.25,0-1.86,9.86h.34l1.87-9.86ZM325.87,44h0L318,82.87h.35L326.22,44Zm-9.73,48.71-8.52,42.54H308l8.51-42.5Z" transform="translate(-0.35)"/><path class="cls-3" d="M652.89,148.66h0c-11.93-2.36-23.31-4.43-34.19-6.36-.07-.56-.13-1.14-.19-1.73v0c0-.52-.11-1.05-.16-1.6s-.09-.94-.14-1.42-.11-1.07-.16-1.62v-.25c0-.35-.07-.71-.1-1.06-.17-1.79-.35-3.71-.52-5.77-.07-.82-.14-1.67-.21-2.54,0-.43-.08-.87-.11-1.32s-.07-.9-.11-1.36v-.5c-.1-1.27-.2-2.61-.3-4a5.28,5.28,0,0,0-.08-1.12c-.13-1.89-.26-3.89-.41-6h0c-.27-4.18-.55-8.76-.83-13.81h0v-.07l-.3.48v-.45c-11.35,18.22-24.48,29.29-38.8,34-.08,1.06-.16,2.11-.26,3.15-7-1-13.69-2-20.24-2.81l-1-.14c-2-1.88-3.09-4.94-3.09-9.54,0-6.68,2.53-10.86,6.46-12.85-.21-4.67-.85-8-2-10.33a8.51,8.51,0,0,0-.54-.92,5,5,0,0,0-.7-.89,5.31,5.31,0,0,0-1.08-.93,6,6,0,0,0-1.25-.66h-.06a2,2,0,0,0-.34-.12,2.91,2.91,0,0,0-.39-.12,2.59,2.59,0,0,0-.4-.09,9.61,9.61,0,0,0-2-.19H549a9.47,9.47,0,0,0-1.3.09,10.16,10.16,0,0,1,1.46-.14H549c-9.62,0-18.3,15.55-23.82,33.26h0q-6.26-.63-12.27-1.14l-8.58-.69q-3.87-.3-7.67-.54h-.08c-.64,0-1.28-.07-1.91-.12l-1.9-.12c.73-2,1.51-4,2.36-5.85s1.6-3.5,2.47-5.21c.18-.37.37-.73.56-1.09.57-1.1,1.16-2.18,1.78-3.24.32-.57.66-1.13,1-1.69q.94-1.56,1.95-3.06l.66-1,.25-.36.85-1.18c.2-.29.41-.57.63-.85l.64-.84.74-.94.58-.7c.21-.27.44-.54.68-.81s.45-.53.69-.79q2-2.26,4.19-4.32a54.61,54.61,0,0,1,9.57-7.13h0l1.32-.73,1-.53,1.15-.56.68-.32h.07l1.21-.53h.11c.62-.26,1.25-.51,1.88-.74l1-.36,1-.34h.05c.68-.22,1.36-.42,2-.6s1.43-.37,2.16-.53l1.1-.23,1.07-.2,1.18-.19,1.16-.16,1.19-.14,1.38-.13,1.27-.08h4.29a1.5,1.5,0,0,1,.3,0c8.13.39,14.44,3.19,19,8.32.32.37.63.75.94,1.14s.6.79.89,1.21l.52.8c.17.27.34.53.5.81.33.54.64,1.11.94,1.69s.49,1,.72,1.51c0,.09.09.19.13.29a.29.29,0,0,1,0,.13c.19.44.38.88.55,1.34a1.34,1.34,0,0,1,.07.18q.27.69.51,1.41a1,1,0,0,1,0,.16l.36,1.13v.18c.07.23.14.46.2.7.13.44.25.89.36,1.34s.23,1,.33,1.45.17.75.23,1.13.13.63.19,1,.17,1,.23,1.48.13.84.18,1.26v.28a.06.06,0,0,1,0,.06,82,82,0,0,1,.59,9.53h0v.09H577c5.89-.36,12-4.11,18.33-10.78s12.78-16.27,19.38-28.33l33.8-4.92c.24,5.44.48,10.48.72,15.17A9.18,9.18,0,0,0,649.3,92c.06,1.23.12,2.44.18,3.62,0,1,.1,2,.15,3,0,.49.06,1,.08,1.46v.85a7.44,7.44,0,0,0,.07,1.19c0,.67.07,1.33.11,2,.06,1,.11,2,.17,3s.11,2,.17,3c0,.57.07,1.14.1,1.7s.07,1.12.1,1.67q.17,2.82.33,5.4.07,1.17.15,2.28c.05.75.1,1.48.14,2.2s.09,1.29.13,1.91c.06.83.11,1.63.16,2.42a5.61,5.61,0,0,0,.08,1.16v.58a4.83,4.83,0,0,0,.07.94c0,.67.1,1.31.14,2l.12,1.63q.15,2.15.3,4.08l.09,1.08a5.1,5.1,0,0,0,.08,1.11c.08.36,0,.49.06.73,0,.48.06,1,.1,1.4l.06.71c0,.7.1,1.37.15,2,0,.32,0,.63.07.94V147a7.88,7.88,0,0,0,.09,1.2v.59Z" transform="translate(-0.35)"/><path class="cls-4" d="M492.66,126.26l1.9.12-1.9-.11Z" transform="translate(-0.35)"/><path class="cls-4" d="M512.69,94.37q-2.19,2.05-4.19,4.32A55.15,55.15,0,0,1,512.69,94.37Z" transform="translate(-0.35)"/><path class="cls-4" d="M522.26,87.24a54.61,54.61,0,0,0-9.57,7.13A52,52,0,0,1,522.26,87.24Z" transform="translate(-0.35)"/><path class="cls-4" d="M512.8,127.74q6,.51,12.27,1.14h0Q518.81,128.26,512.8,127.74Z" transform="translate(-0.35)"/><path class="cls-4" d="M525.78,85.4l-1.15.56c.5-.26,1-.51,1.54-.75l.45-.2,1.12-.49-1.21.53Z" transform="translate(-0.35)"/><path class="cls-4" d="M537.14,81.65l-1.1.23,1-.22Z" transform="translate(-0.35)"/><path class="cls-4" d="M548.87,95.61h.19a10.16,10.16,0,0,0-1.46.14h-.05c-9.07,1.36-17.2,16.24-22.46,33.11h0C530.57,111.16,539.25,95.66,548.87,95.61Z" transform="translate(-0.35)"/><path class="cls-4" d="M576.59,119.24a82,82,0,0,0-.59-9.53,77.8,77.8,0,0,1,.62,9.53Z" transform="translate(-0.35)"/><path class="cls-4" d="M615,98.17c-11.32,18.25-24.45,29.32-38.77,34-.08,1-.16,2.08-.26,3.1h0c-7-1-13.69-2-20.24-2.85,6.55.84,13.28,1.78,20.24,2.81.1-1,.18-2.09.26-3.15,14.32-4.68,27.45-15.75,38.8-34Z" transform="translate(-0.35)"/><polygon class="cls-4" points="614.94 98.12 614.94 98.2 614.64 98.68 614.64 98.6 614.94 98.12"/><path class="cls-4" d="M649.2,90.47c-.24-4.69-.48-9.73-.72-15.17h0C648.75,80.74,649,85.78,649.2,90.47Z" transform="translate(-0.35)"/><path class="cls-4" d="M649.72,100.78v-.85c0,.69.08,1.37.11,2A10,10,0,0,1,649.72,100.78Z" transform="translate(-0.35)"/><path class="cls-4" d="M652.89,148.61h0Q635,145.17,618.7,142.3v-.05C629.58,144.18,641,146.25,652.89,148.61Z" transform="translate(-0.35)"/><path class="cls-3" d="M481.38,82.87l-8.49,42.45A736.12,736.12,0,0,0,395,127a18.32,18.32,0,0,1-.36-3.77v-1.45a8.26,8.26,0,0,1,.09-1c0-.33.07-.55.11-.82a.63.63,0,0,1,.05-.3c.07-.38.15-.74.23-1.1a7.94,7.94,0,0,1,.29-1,1.51,1.51,0,0,1,.17-.49,4.62,4.62,0,0,1,.23-.62c.11-.28.22-.55.35-.81s.29-.58.45-.86a6.12,6.12,0,0,1,.43-.69,6,6,0,0,1,.46-.66,3.94,3.94,0,0,1,.36-.45,4.11,4.11,0,0,1,.38-.45l.39-.4a12.13,12.13,0,0,1,3.09-2.17h0c-.47-10.25-2.74-14.25-8.8-14.25h-.35c-9.68,0-18.64,15.72-24.35,33.57h-.06v-.06c-11.14,1-22.51,2.18-34.49,3.39,8.2-25.71,25.64-51.7,57.08-51.89h1.63a1.71,1.71,0,0,1,.32,0,4,4,0,0,1,.85.06h-.87c18.55.88,27.63,14.32,27.63,39.36a4.32,4.32,0,0,0,2.17.49h.7c5.46,0,12.12-2,18.65-4.9h0L448.36,83h0Z" transform="translate(-0.35)"/><path class="cls-4" d="M333.75,132.57c12-1.21,23.35-2.37,34.49-3.39v.06c-11.14,1-22.55,2.17-34.49,3.39A.06.06,0,0,1,333.75,132.57Z" transform="translate(-0.35)"/><path class="cls-4" d="M398.69,112.1a11.2,11.2,0,0,1,3.09-2.19h0A12,12,0,0,0,398.69,112.1Z" transform="translate(-0.35)"/><path class="cls-4" d="M422.41,120.53h.15a4.32,4.32,0,0,1-2.17-.49c0-25-9.08-38.48-27.63-39.36h.87a4.1,4.1,0,0,1,.86.06c17.4,1.61,25.92,15,25.92,39.24a4.22,4.22,0,0,0,1.87.48Z" transform="translate(-0.35)"/><path class="cls-4" d="M425.85,120.4a55.23,55.23,0,0,0,16.1-4.77h0c-6.53,2.9-13.19,4.9-18.65,4.9h1C424.75,120.53,425.34,120.45,425.85,120.4Z" transform="translate(-0.35)"/><polygon class="cls-4" points="448.13 82.87 441.6 115.63 448.12 82.87 448.13 82.87"/><path class="cls-3" d="M345.13,82.87l-1.86,9.86H316.14l-8.52,42.54h-.05c-10.63,1.06-21.74,2.14-33.49,3.21l9.16-45.72H275.6l1.87-9.86H285l7-34L325.86,44,318,82.87Z" transform="translate(-0.35)"/><polygon class="cls-4" points="275.26 92.73 275.23 92.73 277.1 82.87 277.13 82.87 275.26 92.73"/><polygon class="cls-4" points="282.85 92.73 282.5 92.73 282.51 92.7 282.86 92.7 282.85 92.73"/><path class="cls-4" d="M274.09,138.45c11.75-1.07,22.86-2.15,33.49-3.21h0c-10.63,1-21.74,2.13-33.49,3.2Z" transform="translate(-0.35)"/><polygon class="cls-4" points="325.52 44.02 317.67 82.87 317.66 82.87 325.51 44.02 325.52 44.02"/><path class="cls-3" d="M251.45,109.66c0,9.14-2.33,20.35-4.84,31.14h0q-15,1.2-31.49,2.3c2.2-9.95,4.14-19.46,4.14-26.27,0-6.4-1.72-10.48-5.13-11.94a6.36,6.36,0,0,0-1.75-.5l-.48-.07h-1.35a7.45,7.45,0,0,0-1.16.08,3.43,3.43,0,0,0-.56.08,6,6,0,0,0-1.11.26,2.72,2.72,0,0,0-.55.18,3.5,3.5,0,0,0-.54.2,6.89,6.89,0,0,0-1.06.51,4.21,4.21,0,0,0-.51.29,4.39,4.39,0,0,0-.51.32,10.13,10.13,0,0,0-1,.72c-.35.26-.68.54-1,.83-.16.14-.32.29-.47.45s-.52.52-.77.8-.49.55-.72.84l-.12.15c-.22.26-.43.52-.63.8s-.47.63-.7,1h0c-.24.34-.46.68-.68,1s-.36.57-.53.87l-.33.58c-.15.25-.29.51-.43.77s-.41.78-.61,1.18-.4.81-.59,1.22-.38.83-.56,1.26-.27.63-.4,1-.17.4-.25.61c-.27.67-.53,1.36-.78,2.06-.37,1-.71,2.1-1,3.18l-.42,1.43s-1.52,7.41-3.63,17.77q-17.48.94-33.39,1.41C161.85,114.7,168.4,82.9,168.4,82.9h32.9l-2.51,12.82.44-.52-.1.5h0C207.87,85.05,217,82.38,223.93,82h3.23c7.05.22,13.12,2.38,17.43,6.87.27.28.53.57.79.87l.37.45.37.47c.24.31.47.64.7,1l.66,1h0l.31.54a6,6,0,0,1,.3.56c.2.37.38.75.56,1.15s.35.79.52,1.2c.05.13.1.26.14.4l.06.15c.12.28.22.57.32.87h0c.13.39.25.79.37,1.2h0c.08.26.15.53.21.8s.15.56.21.84.08.34.11.52V101c.07.32.13.64.19,1s.12.69.17,1,.07.47.1.71l.09.74a1.66,1.66,0,0,0,.05.41c0,.44.08.89.11,1.34s.06,1,.08,1.48v1.21C251.38,109.18,251.45,109.4,251.45,109.66Z" transform="translate(-0.35)"/><path class="cls-4" d="M168.36,82.87h0s-6.55,31.8-12.86,63.22h0C161.71,115.22,168.14,84,168.36,82.87Z" transform="translate(-0.35)"/><path class="cls-4" d="M199.2,95.14h0l-.1.5h0Z" transform="translate(-0.35)"/><path class="cls-4" d="M5.8,135.18a13.3,13.3,0,0,0,2.84,1.5A14,14,0,0,1,5.8,135.18Zm2.84,1.5a14.36,14.36,0,0,0,2.56.73A16.25,16.25,0,0,1,8.64,136.68ZM25.28,96.59c1.12-.37,2.28-.71,3.46-1C27.56,95.87,26.4,96.21,25.28,96.59ZM23,97.42l.86-.32-.21.07Zm1.3,23.13h0Zm27.37-12.81C45.51,119.23,40,131,35.2,142.36h0C40,131,45.54,119.23,51.66,107.74Zm23.46,0Zm13.63-28c-.31.55-.6,1.1-.9,1.66s-.6,1.12-.89,1.68l-.89,1.7-.88,1.71c-.63,1.16-1.2,2.32-1.8,3.51s-1.16,2.35-1.73,3.54-1.15,2.4-1.72,3.61c.91.18,1.81.37,2.71.57-.89-.2-1.79-.39-2.68-.57,2.84-6.07,5.76-11.9,8.74-17.4Zm3.61-6.43-.9,1.57c.3-.52.6-1,.91-1.57l.35-.61Zm8.24,73.16h0l.3-1.54c-.14.52-.24,1.07-.34,1.55Zm5.85-29.86Zm.59-11.36H107l1.21.49h0c-.42-.18-.79-.34-1.18-.48Zm13.6-65.9-.41.26c-.34.21-.67.43-1,.66l-.6.42-.61.44-.58.44-.58.45-.08.07c-.34.26-.68.54-1,.82l-.25.22c-.26.22-.53.45-.79.69-.55.49-1.11,1-1.66,1.53L112,46.42a46.11,46.11,0,0,1,9.64-7.62h0Zm26.54-17.52-.71-.09.69.1h.32l1,.16-1.34-.16Zm-2.84-.33h0L143,21.42c-.52,0-1.05-.06-1.58-.07H140c-27,0-57.09,33.22-80.41,72.61h0C82.9,54.57,113,21.35,140,21.35h1.65a10.7,10.7,0,0,1,1.39.06c.46.06.93,0,1.39.1h0c.67,0,1.34.12,2,.2l-.8-.1Zm-11,125.08-7.24.06c2.38,0,4.8,0,7.24,0h0L157.27,24.36Z" transform="translate(-0.35)"/><path class="cls-3" d="M154.87,23.57c-1.19-.37-2.4-.69-3.62-1h0l-1.36-.29L148.52,22h0a48.88,48.88,0,0,0-8.54-.69c-27,0-57.09,33.22-80.41,72.61h-.65c-4.09-.42-7.52-.62-10.4-.67h-4a14.44,14.44,0,0,0-2,.09l-1.21.09-1.79.16c-1.19.12-2.35.27-3.49.44l-1.7.28c-.63.11-1.26.23-1.88.36L30.89,95c-.71.16-1.41.34-2.1.52-1.18.32-2.34.66-3.46,1-.49.16-1,.33-1.46.51l-.86.32-.82.31-.15.06L21.6,98l-.86.36c-.27.12-.54.23-.8.36s-.77.34-1.14.53l-1.07.53-.2.1-.26.13q-1.37.72-2.64,1.5A39.43,39.43,0,0,0,9.71,105c-.44.37-.86.76-1.28,1.15-.2.2-.41.4-.6.6C3,111.56.35,117.29.35,123.46c0,4.63,1.51,8.13,4,10.5a13.32,13.32,0,0,0,1.48,1.22,14,14,0,0,0,2.84,1.5,16.25,16.25,0,0,0,2.56.73c.44.08.9.15,1.35.21s.93.08,1.4.1h.55a21.81,21.81,0,0,0,2.91-.23l.91-.17.6-.14q.59-.15,1.14-.33c.37-.13.73-.26,1.08-.41l1-.48.57-.32.54-.34a11.66,11.66,0,0,0,1.44-1.19,5.77,5.77,0,0,0,.42-.44c.17-.19.33-.38.48-.58l.42-.61c.13-.21.25-.43.36-.65a8.69,8.69,0,0,0,.54-1.39,8.5,8.5,0,0,0,.31-2.3,7.19,7.19,0,0,0-.07-1.22c-.07-.41-.11-.83-.19-1.24a3.21,3.21,0,0,0-.17-.73c-.06-.24-.13-.48-.2-.71s-.13-.4-.2-.6a9.6,9.6,0,0,0-1.07-2.21l-.24-.32a1.51,1.51,0,0,0-.62-.5h-.24a14.18,14.18,0,0,1,3.49-5.4c3.11-3,7.77-5,13.72-6.2.74-.15,1.5-.29,2.29-.41l1.18-.17c.4-.07.81-.12,1.22-.16,1.64-.22,3.36-.38,5.15-.51h.35C45.54,119.23,40,131,35.23,142.36c8,.91,16.52,1.7,25.8,2.36h0c4.12-12.43,8.89-25,14.06-37h.34a86.59,86.59,0,0,1,14.89,2.68,95.5,95.5,0,0,1,16.11,6.19h0v.08a.81.81,0,0,1,0,.22v.25a.7.7,0,0,1-.06.33c-.06.12,0,.25-.08.4a5.93,5.93,0,0,0-.19,1,4,4,0,0,1-.12.62c0,.22-.08.42-.13.65-.18.9-.39,2-.62,3.15l-.19,1c-.44,2.23-1,4.86-1.53,7.82-.08.43-.17.87-.26,1.32-.17.87-.35,1.77-.52,2.69-.09.46-.18.93-.28,1.4-.46,2.35-1,4.84-1.45,7.43l-.3,1.54q5.34.12,10.94.16h14.59l7.24-.06,23.8-122.23C156.48,24.07,155.68,23.81,154.87,23.57Zm-46.38,82.15-.32-.14v.14h0c-.85-.35-1.71-.7-2.57-1l-1.29-.51L103,103.7c-.86-.33-1.73-.64-2.6-1l-2.62-.89c-4.08-1.35-8.22-2.53-12.39-3.54h0c-.9-.22-1.8-.42-2.7-.62s-1.8-.39-2.71-.57c1.14-2.42,2.29-4.81,3.45-7.15.58-1.17,1.17-2.33,1.76-3.48S86.37,84.17,87,83c.29-.56.59-1.12.89-1.68.6-1.12,1.19-2.22,1.8-3.3l.9-1.62c.3-.53.6-1.07.91-1.6l.9-1.57.36-.61.49-.83c.33-.55.65-1.1,1-1.64l1-1.6q2.94-4.77,5.92-9c.44-.62.88-1.24,1.33-1.84l.66-.9c.44-.6.88-1.18,1.33-1.76s.72-.93,1.08-1.38.72-.9,1.08-1.33l1.26-1.51c.29-.34.58-.67.88-1s.73-.83,1.1-1.23l.76-.82c.46-.49.93-1,1.39-1.43l1-1c.55-.53,1.11-1,1.66-1.53.26-.24.53-.47.79-.69l.25-.22,1-.82.08-.07c.39-.31.78-.6,1.16-.89l1.21-.86,1-.66c.45-.3.91-.57,1.37-.83h0V39l.39-.23Z" transform="translate(-0.35)"/><path class="cls-7" d="M463.82,43C475,47.42,481.3,50.42,491,49.62a24.55,24.55,0,0,0,.42-4.53c0-13.38-10.18-24.29-22.74-24.29-10.89,0-20,8.37-22.1,19.44A48.25,48.25,0,0,1,463.82,43Z" transform="translate(-0.35)"/><polygon class="cls-3" points="205.01 9.13 200.81 33.67 197.79 32.58 199.53 22.39 185.96 22.39 184.21 32.58 180.88 33.67 185.08 9.13 188.22 9.13 186.42 19.66 200 19.66 201.8 9.13 205.01 9.13"/><polygon class="cls-3" points="220.04 11.83 218.71 19.59 228.18 19.59 227.72 22.29 218.25 22.29 216.9 30.15 227.02 30.15 227.48 32.85 213.29 32.85 217.35 9.13 231.37 9.13 229.71 11.83 220.04 11.83"/><polygon class="cls-3" points="252.58 32.85 237.98 32.85 242.04 9.13 245.18 9.13 241.59 30.15 251.84 30.15 252.58 32.85"/><polygon class="cls-5" points="276.97 22.53 269.41 22.53 274.6 14.22 276.97 22.53"/><path class="cls-3" d="M276.59,8.61l-1.95.82L259.9,32.68,262.51,34l5.56-8.76h10L280.56,34l3.13-1.3Zm-6.83,13.92L275,14.22l2.37,8.31Z" transform="translate(-0.35)"/><polygon class="cls-2" points="276.97 22.53 269.41 22.53 274.6 14.22 276.97 22.53"/><path class="cls-3" d="M317,16.85a8.27,8.27,0,0,0-1.45-3.79A8.81,8.81,0,0,0,312,10.24a14.4,14.4,0,0,0-6.12-1.11H297.3l-4.06,23.72h9a15.64,15.64,0,0,0,6.12-1.09,14.26,14.26,0,0,0,4.37-2.8,13.1,13.1,0,0,0,2.79-3.85,16.18,16.18,0,0,0,1.38-4.22A14,14,0,0,0,317,16.85Zm-3.46,4h0a11,11,0,0,1-4,6.89,10.64,10.64,0,0,1-3.3,1.77,11.43,11.43,0,0,1-3.67.6h-5.71L300,11.79h5.5a10.33,10.33,0,0,1,3.81.66,7.34,7.34,0,0,1,2.7,1.87,6.69,6.69,0,0,1,1.48,2.87,8.87,8.87,0,0,1,.08,3.7Z" transform="translate(-0.35)"/><polygon class="cls-3" points="332.75 11.83 331.43 19.59 340.9 19.59 340.44 22.29 330.97 22.29 329.62 30.15 339.74 30.15 340.2 32.85 326.01 32.85 330.07 9.13 344.09 9.13 342.43 11.83 332.75 11.83"/><path class="cls-3" d="M363.64,21.23a7.31,7.31,0,0,0,5.12-5.81,6.24,6.24,0,0,0,0-2.36,4.18,4.18,0,0,0-1.06-2,5.84,5.84,0,0,0-2.31-1.4,11,11,0,0,0-3.73-.53h-6.53l-4.07,23.76h3.15l1.85-10.81h4.43l6,11.66,2.92-1.67Zm-4.11-1.85h-3l1.23-7.55h3c1.84,0,3.12.35,3.84,1.06a2.88,2.88,0,0,1,.8,2.7,4.17,4.17,0,0,1-1.75,2.77,7.1,7.1,0,0,1-4.12,1Z" transform="translate(-0.35)"/><polygon class="cls-2" points="389.77 1.47 384.08 8.17 382.59 7.11 388.04 0 389.77 1.47"/><polygon class="cls-3" points="385.56 8.31 381.37 32.85 378.15 32.85 382.14 9.5 385.56 8.31"/><polygon class="cls-5" points="408.33 22.53 400.77 22.53 405.99 14.22 408.33 22.53"/><path class="cls-3" d="M408,8.61l-2,.82L391.28,32.68,393.89,34l5.57-8.76h10L412,34l3.13-1.3Zm-6.86,13.92,5.22-8.31,2.34,8.31Z" transform="translate(-0.35)"/><polygon class="cls-2" points="408.33 22.53 400.77 22.53 405.99 14.22 408.33 22.53"/></svg>