<svg xmlns="http://www.w3.org/2000/svg" xmlns:xlink="http://www.w3.org/1999/xlink" viewBox="0 0 697.04 312.32"><defs><style>.cls-1{isolation:isolate;}.cls-2{fill:#ce0074;}.cls-3{fill:#702516;}.cls-4{fill:#fcfafa;}.cls-5,.cls-8,.cls-9{fill:#fff;}.cls-6{fill:#fffbfa;}.cls-7,.cls-8{mix-blend-mode:multiply;}.cls-7{fill:url(#linear-gradient);}.cls-9{opacity:0.1;}</style><linearGradient id="linear-gradient" x1="375.12" y1="101.93" x2="375.12" y2="156.98" gradientUnits="userSpaceOnUse"><stop offset="0" stop-color="#fff"/><stop offset="1"/></linearGradient></defs><title>logo2</title><g class="cls-1"><g id="Capa_1" data-name="Capa 1"><path class="cls-2" d="M421,244a40.39,40.39,0,0,1,.34-5c-9.13-1.49-18.19-3.13-27.12-4.83-153.57-29.88-204-41.8-293.69-1.2,74.76-23.85,156.17-7.53,281.7,24.69,19.05,4.9,37.11,9.09,54.3,12.78C426.88,265.61,421,256.1,421,244Zm296-74.31h0c14.73,69.55-99.47,88.08-223.8,78.07-9.92,20.58-26,25.9-39.44,26.19,325.27,63.59,301-98.66,263.24-104.26Z" transform="translate(-41.24 -0.34)"/><path class="cls-3" d="M460.72,226.72h0c-3,14.55-8.59,21.93-13.39,21.93-5.13,0-7.86-4.68-7.86-8.16,0-9.79,10.86-16.25,22.65-20.87ZM240.45,95.44l-.11.54c8.76-10.61,17.84-13.28,24.82-13.71C258.26,82.61,249.21,85.1,240.45,95.44ZM655.54,80.51c-13.06,23.89-25.67,38.11-37.36,39.08v0c11.79-.72,24.51-15,37.71-39.11l33.83-4.92v0Zm-166.17,2.7L482.84,116c-6.46,2.87-13,4.86-18.48,4.9h.18c5.46,0,12.12-2,18.65-4.9l6.53-32.79Zm-171,0-1.86,9.86h.34l1.87-9.86ZM162.79,39.36l-13.38,66.56.32.14,13.45-66.93ZM41.59,123.8c0-16.47,19.19-29.77,45.78-30.22-26.78.34-46.13,13.68-46.13,30.22,0,9.42,6.26,14.12,13.95,14.26C47.65,137.77,41.59,133.08,41.59,123.8Z" transform="translate(-41.24 -0.34)"/><polygon class="cls-4" points="325.87 43.97 325.86 44.02 292.04 48.87 285.05 82.87 284.7 82.87 292.58 44.58 325.87 43.97"/><path class="cls-5" d="M694.85,165.18c0,32-21.72,42.59-40.71,42.59C626.62,207.77,622,190,622,175.05c0-14.55,8.52-23.42,16.65-23.42,7.86,0,12,3.19,12,10.36a11.28,11.28,0,0,1-11.06,11.07c-2.33,0-5.13-.71-6.26-3.19,0,11.57,4.6,18.45,13.39,18.45,10.2,0,14.59-5.68,14.59-22.92,0-13.72-2.57-21.31-5.1-66.43l.32-.51c1.21,21.79,2.44,34.88,3.39,44.13,10.89,1.93,22.27,4,34.21,6.36C694.59,155.12,694.85,159.78,694.85,165.18Z" transform="translate(-41.24 -0.34)"/><path class="cls-5" d="M617.17,135.61c-4.07,44.16-26.52,71.66-54.57,71.66-16.2,0-29-6.17-34.32-21.29-9.12,14-20.65,19.38-30.58,22.28L494.23,226c-6.92,35.2-26.38,41.81-41.64,41.81a30.3,30.3,0,0,1-13.85-3.06c-.4-.21-.74-.35-1.07-.56-.07-.08-.13-.08-.2-.15-6-3.54-9.59-9.22-10.53-16.46v-.29a9.09,9.09,0,0,1-.13-1.34v-.36a12.17,12.17,0,0,1-.07-1.63,18.91,18.91,0,0,1,.07-2c0-.36.07-.64.07-1s.06-.57.13-.86c2.33-18.16,21.19-27.53,37.64-32.86l15.93-79.85a90.69,90.69,0,0,1-19.66,5.75c-3.66,45.57-26.78,74.1-55.23,74.1-16.52,0-29.52-6.46-34.65-22.21-12.72,19.51-28.38,22.71-37.91,22.71-11.72,0-21.32-6.32-24-20.8-10.93,18-23.06,20.8-32.18,20.8-20.12,0-27.25-13.77-27.25-27.82,0-16.75,10.39-47,10.39-62.75,0-8-2.68-12.37-8-12.56,5.53,0,8.33,4.4,8.33,12.56,0,6.81-1.94,16.32-4.14,26.27,11-.73,21.49-1.5,31.53-2.3-3,12.76-6.22,24.93-6.22,32.39,0,6.17,2.27,10.36,9.19,10.36,10.2,0,14.33-8.87,19.46-21.65v-.07l13.86-69.13h.35l-9.17,45.75c11.77-1.07,22.89-2.15,33.54-3.21l-6.27,31.28a38.62,38.62,0,0,0-.93,7.88c0,6.88,3,9.15,9.53,9.15,6.86,0,13.33-5.53,17.59-13.63a17.42,17.42,0,0,1-.07-1.91c0-28.32,15.73-87.38,63.36-87.38-31.46.19-48.91,26.22-57.1,51.95,12-1.22,23.39-2.38,34.55-3.4-4,12.37-6.36,25.76-6.36,35.63,0,16.26,3,19.95,11.79,19.95,11.33,0,23.12-22.15,26.78-51.25-4.79-1.2-6.19-5.39-6.19-10.29,0-6.88,3-11.35,7.13-13.34C442.2,100.07,440,96.07,434.06,96h.16c6.06,0,8.33,4,8.8,14.27-4.14,2-7.13,6.46-7.13,13.34a18.27,18.27,0,0,0,.36,3.77,735.09,735.09,0,0,1,77.88-1.7l-14.36,71.75c11.92-4.54,19.85-11.22,25.91-26.12,0-.93-.06-1.92-.06-2.91,0-26.73,13.42-80.91,55-86.8-24.2,3.66-38.8,23.68-46.73,45,10.32.62,21.06,1.48,32.42,2.62-3.9,12.46-6.23,26-6.23,36,0,16.26,3,19.95,11.79,19.95,11.33,0,22.66-22.15,26.12-51-3.66-1.49-5.53-4.9-5.53-11.07,0-6.68,2.53-10.86,6.47-12.85C598.45,100.08,596,96.07,590.3,96h.16c5.8,0,8.33,4,8.79,14.27-3.93,2-6.46,6.17-6.46,12.85,0,4.6,1,7.66,3.09,9.54C602.76,133.54,609.84,134.52,617.17,135.61Z" transform="translate(-41.24 -0.34)"/><path class="cls-5" d="M230.16,145.05c-3.55,17.44-8.81,43.21-11.36,55.9-2.33-.06-4.66-.14-6.93-.14-9,0-17.72.43-26.25,1.28,4.07-23.78,23.65-118.88,23.65-118.88h.35s-6.55,31.82-12.87,63.25Q212.68,146,230.16,145.05Z" transform="translate(-41.24 -0.34)"/><path class="cls-5" d="M174.59,146.93l-11.42,58.35s-19.65,3.91-32.58,9.16c-.8.28-1.53.5-2.33.78,3.46-19.09,19.05-98.3,19.05-98.3-11.66-5.62-20.58-7.83-30.64-8.83a.06.06,0,0,1,0,0c10.19,1,19.19,3.19,31,8.87,0,0-2.57,13.08-5.86,29.89Q157.2,147.13,174.59,146.93Z" transform="translate(-41.24 -0.34)"/><path class="cls-5" d="M86.28,220.54c0,7.88,1.87,11.57,3.27,13.84-12.46,0-31-.49-31-26.12,0-22.13,13.84-62.51,34-100.18l.35,0c-6.13,11.5-11.69,23.25-16.45,34.66,8,.91,16.54,1.7,25.83,2.36C92.54,174.26,86.28,202.62,86.28,220.54Z" transform="translate(-41.24 -0.34)"/><path class="cls-5" d="M201.57,9.06,198.51,24.7a50.86,50.86,0,0,0-17.34-3c-27,0-57.09,33.22-80.41,72.61l-.33,0c23.31-39.37,39.44-63.66,67.13-76.44C180.19,12,196.44,9.06,201.57,9.06Z" transform="translate(-41.24 -0.34)"/><path class="cls-2" d="M510.16,19.33c14.12,0,25.58,12.28,25.58,27.32,0,14.84-11.46,27-25.58,27s-25.38-12.13-25.38-27c0-15,11.39-27.32,25.38-27.32Z" transform="translate(-41.24 -0.34)"/><path class="cls-4" d="M131.34,272.41a4.13,4.13,0,0,1-.91,2.73,2.71,2.71,0,0,1-2.17,1.09,1.21,1.21,0,0,1-.67-.14c-.13-.1-.19-.33-.19-.71a3.19,3.19,0,0,0-.62-2.15,2.57,2.57,0,0,0-2-.69q-3,0-5.37,3.44a13.6,13.6,0,0,0-2.39,7.95c0,3,.89,5.21,2.65,6.62s4.58,2.14,8.43,2.21L127,297a4.54,4.54,0,0,0-1,.12h-.15a25.85,25.85,0,0,1-7.11-.88,12.94,12.94,0,0,1-5-2.59,14.64,14.64,0,0,1-4.56,2.41,20.09,20.09,0,0,1-5.63.94l1.19-4.26a14.83,14.83,0,0,0,3.37-.57,11.86,11.86,0,0,0,3-1.36,11.17,11.17,0,0,1-1-2.91,18.64,18.64,0,0,1-.34-3.74,17.54,17.54,0,0,1,4.59-12q4.59-5.14,10.51-5.15a7.23,7.23,0,0,1,4.81,1.5A4.84,4.84,0,0,1,131.34,272.41Z" transform="translate(-41.24 -0.34)"/><path class="cls-3" d="M161.2,292.79,160.09,297l1.15-4.23Z" transform="translate(-41.24 -0.34)"/><path class="cls-4" d="M161.06,276.92c.65-1.59,1.4-3.28,2.25-5a17.81,17.81,0,0,0,1.28-3c0-.67-.51-1.25-1.53-1.75a8.1,8.1,0,0,0-3.57-.74,1.63,1.63,0,0,0-1.12.35,3.85,3.85,0,0,0-.77,1.64l-.42,1.42a7.78,7.78,0,0,0-2.63-1.93,8.34,8.34,0,0,0-3.32-.6,13.35,13.35,0,0,0-7.44,2.38,23.47,23.47,0,0,0-6.56,6.93,28,28,0,0,0-3,6.1,17.78,17.78,0,0,0-1.07,5.73q0,.81.06,1.53c0,.47.1.93.18,1.37a9.22,9.22,0,0,1-2.33,1,15,15,0,0,1-2.91.44L127,297a22.72,22.72,0,0,0,4.44-.56,12.46,12.46,0,0,0,3.38-1.31,4.34,4.34,0,0,0,2,1.49,8,8,0,0,0,2.95.5,9.87,9.87,0,0,0,6.66-2.77,31.72,31.72,0,0,0,6.27-8.77c-.55,1.68-.94,3.06-1.18,4.13a12.8,12.8,0,0,0-.36,2.71A3.7,3.7,0,0,0,153,296q1.89,1,6.54,1h.54l1.11-4.23a8.74,8.74,0,0,1-3.33-.74,1.93,1.93,0,0,1-.74-1.75,20.25,20.25,0,0,1,1-5.22A85.69,85.69,0,0,1,161.06,276.92Zm-12.61,10.25q-3.47,4.6-6.37,4.61a1.75,1.75,0,0,1-1.54-.74,4.2,4.2,0,0,1-.5-2.29,14.14,14.14,0,0,1,1.11-5,23.1,23.1,0,0,1,3-5.41,19.79,19.79,0,0,1,4.33-4.38,7.27,7.27,0,0,1,4-1.61,4.21,4.21,0,0,1,1.58.32,6,6,0,0,1,1.58,1A65.11,65.11,0,0,1,148.45,287.17Z" transform="translate(-41.24 -0.34)"/><path class="cls-3" d="M161.2,292.79,160.09,297l1.15-4.23Zm31.57,0L191.62,297h0l1.15-4.26Z" transform="translate(-41.24 -0.34)"/><path class="cls-4" d="M186.2,291.65a30.12,30.12,0,0,0,6.37-8.09,18,18,0,0,0,2.19-8.37,8.69,8.69,0,0,0-2-5.92,6.41,6.41,0,0,0-5.06-2.28,8.52,8.52,0,0,0-6,2.74q-2.83,2.75-6.62,9.65,1-3.47,2.63-8.67a54.4,54.4,0,0,0,2-7.16,1.15,1.15,0,0,0-.64-1.07,4.45,4.45,0,0,0-2-.35q-4.11,0-5.56,8.11c-.4,2.27-.75,4.14-1.07,5.61l-.15.76q-3.26,15.7-9.06,16.15v0h0L160.09,297a12.18,12.18,0,0,0,2.75-.48,8.62,8.62,0,0,0,2.25-1.07q-1.09,4.06-2.92,9.51t-1.82,6.64a.87.87,0,0,0,.51.74,2.44,2.44,0,0,0,1.27.3,9.16,9.16,0,0,0,3.86-.58,3.09,3.09,0,0,0,1.47-2.26c.08-.34.18-.82.3-1.45A119.73,119.73,0,0,1,171.22,295a11.79,11.79,0,0,0,2.46,1.15,8,8,0,0,0,2.45.39,12.26,12.26,0,0,0,3.23-.45,15.73,15.73,0,0,0,3.2-1.28,13.58,13.58,0,0,0,3.82,1.64,17.79,17.79,0,0,0,4.5.54h.74l1.15-4.26a22,22,0,0,1-3.59-.27A12.84,12.84,0,0,1,186.2,291.65Zm-4.38-1.73a13.49,13.49,0,0,0-2.3-.74,8.92,8.92,0,0,0-2-.24,9.25,9.25,0,0,0-2.18.28,11.8,11.8,0,0,0-2.32.89,51.67,51.67,0,0,1,6.17-12.6q3.36-4.72,6.08-4.72a2.54,2.54,0,0,1,2.19,1.15,5.39,5.39,0,0,1,.8,3.14,14.55,14.55,0,0,1-1.73,6.5A23,23,0,0,1,181.82,289.92Z" transform="translate(-41.24 -0.34)"/><path class="cls-3" d="M192.77,292.76,191.62,297h0l1.15-4.26Z" transform="translate(-41.24 -0.34)"/><path class="cls-4" d="M220.79,292.79,219.63,297h-.89q-5.33,0-7.67-1.31a4.51,4.51,0,0,1-2.34-4.25q0-2.61,2.24-7.77t2.24-6.61a2.08,2.08,0,0,0-.77-1.43,17,17,0,0,0-2.61-1.88q-4,12.21-8.19,17.55c-2.8,3.56-6.13,5.45-10,5.7l1.15-4.26h0q3.67-.66,6.73-5.32t7-16.19a4.71,4.71,0,0,1-1-1.61,5.74,5.74,0,0,1-.33-2,5.93,5.93,0,0,1,1.17-3.77,3.59,3.59,0,0,1,3-1.5,3.48,3.48,0,0,1,2.57.95,3.41,3.41,0,0,1,.95,2.52,6.13,6.13,0,0,1-.15,1.4,5.73,5.73,0,0,1-.47,1.31c1,.68,2.31,1.49,3.91,2.43q4.35,2.49,4.35,5,0,2.08-2.37,7.35t-2.37,7.16a1.68,1.68,0,0,0,.82,1.6A14,14,0,0,0,220.79,292.79Z" transform="translate(-41.24 -0.34)"/><path class="cls-6" d="M244.41,251.94a5.75,5.75,0,0,1-1.36,3.91,4.26,4.26,0,0,1-3.37,1.58,3.45,3.45,0,0,1-2.65-1,4,4,0,0,1-.94-2.83,6,6,0,0,1,1.38-4,4.2,4.2,0,0,1,3.3-1.62,3.44,3.44,0,0,1,2.61,1.1A4,4,0,0,1,244.41,251.94Z" transform="translate(-41.24 -0.34)"/><path class="cls-4" d="M235,285.94a19.29,19.29,0,0,0-1.07,4.29,2,2,0,0,0,.83,1.85,8.29,8.29,0,0,0,3.41.68L237,297h-1a12.19,12.19,0,0,1-5.72-1.06,4.41,4.41,0,0,1-2.27-3.39,12.49,12.49,0,0,1-3.77,3.23,10.62,10.62,0,0,1-4.52,1.22l1.12-4.26q3.49-.13,6-4.12t4.66-13.14c.22-1,.48-2.19.77-3.69.6-3.17,2.54-4.76,5.84-4.76a3.5,3.5,0,0,1,1.76.36,1.19,1.19,0,0,1,.61,1.06,13.39,13.39,0,0,1-1,3.69c-.68,1.83-1.16,3.25-1.46,4.26l-2.84,9.15Z" transform="translate(-41.24 -0.34)"/><path class="cls-4" d="M264.87,272.41a4.12,4.12,0,0,1-.9,2.73,2.73,2.73,0,0,1-2.18,1.09,1.2,1.2,0,0,1-.66-.14c-.13-.1-.19-.33-.19-.71a3.14,3.14,0,0,0-.63-2.15,2.53,2.53,0,0,0-2-.69c-2,0-3.79,1.15-5.37,3.44a13.6,13.6,0,0,0-2.39,7.95c0,3,.89,5.21,2.65,6.62s4.58,2.14,8.43,2.21L260.52,297a4.62,4.62,0,0,0-1,.12h-.14a25.8,25.8,0,0,1-7.11-.88,12.94,12.94,0,0,1-5-2.59,14.87,14.87,0,0,1-4.56,2.41A20.15,20.15,0,0,1,237,297l1.18-4.26a14.92,14.92,0,0,0,3.38-.57,12,12,0,0,0,3-1.36,11.17,11.17,0,0,1-1.05-2.91,17.93,17.93,0,0,1-.34-3.74,17.54,17.54,0,0,1,4.59-12q4.59-5.14,10.51-5.15a7.25,7.25,0,0,1,4.81,1.5A4.83,4.83,0,0,1,264.87,272.41Z" transform="translate(-41.24 -0.34)"/><path class="cls-4" d="M290.54,292.13a9,9,0,0,0,3.29.63L292.71,297H292c-3.23,0-5.61-.47-7.12-1.39a4.74,4.74,0,0,1-2.26-4.36,15.69,15.69,0,0,1,.86-4.16q.86-2.81,2.6-7.16l.24-.6a20.34,20.34,0,0,0,1.51-4.29,1.07,1.07,0,0,0-.25-.79,1.12,1.12,0,0,0-.79-.25q-1.74,0-5.4,4.73A49.05,49.05,0,0,0,275,290.23c-.38.91-.78,2-1.21,3.32a4.79,4.79,0,0,1-4.86,3.59,4,4,0,0,1-1.66-.24.84.84,0,0,1-.47-.83,2.94,2.94,0,0,1,.16-.84,12.88,12.88,0,0,1,.52-1.31,9.15,9.15,0,0,1-3,2.2,11.34,11.34,0,0,1-3.92.9l1.16-4.26a6.65,6.65,0,0,0,5-2.75c1.34-1.7,2.63-4.65,3.9-8.86l6.19-20.57q.67-2.2,1.48-5.48,1.38-5.68,4.82-5.68a10.36,10.36,0,0,1,3.22.33,1.17,1.17,0,0,1,.84,1.15,15.31,15.31,0,0,1-1.15,3.88q-.48,1.2-.72,1.86l-9.65,26.06q4.62-8,8.46-11.66t7.5-3.67a3.89,3.89,0,0,1,2.9,1.05,4.05,4.05,0,0,1,1,2.95q0,2.11-3.47,11.33l-.71,1.92a33.76,33.76,0,0,0-1.17,3.53,11,11,0,0,0-.42,2.34A1.74,1.74,0,0,0,290.54,292.13Z" transform="translate(-41.24 -0.34)"/><path class="cls-4" d="M322.11,275.06a28,28,0,0,1-1.14,7.78,28.55,28.55,0,0,1-3.21,7.27,17.92,17.92,0,0,1-4.71,5.28,9.31,9.31,0,0,1-5.42,1.75,10.41,10.41,0,0,1-3.66-.58,6.9,6.9,0,0,1-2.65-1.78,19.06,19.06,0,0,1-4,1.59,21.33,21.33,0,0,1-4.57.65l1.18-4.26a15.1,15.1,0,0,0,2.92-.44,9.15,9.15,0,0,0,2.32-1,13,13,0,0,1-.53-2.19,15.94,15.94,0,0,1-.18-2.45,21.37,21.37,0,0,1,1.35-7.25,22.77,22.77,0,0,1,3.68-6.66,16.64,16.64,0,0,1,4.89-4.19,10.77,10.77,0,0,1,5.3-1.61,1.59,1.59,0,0,1,1,.3,1,1,0,0,1,.37.8c0,.46-.48,1.2-1.43,2.19a30.71,30.71,0,0,0-2.21,2.51,35.12,35.12,0,0,0-4.68,8.25,21.8,21.8,0,0,0-1.63,7.84,4.43,4.43,0,0,0,.73,2.71,2.35,2.35,0,0,0,2,1q3,0,5.95-4.65a20.34,20.34,0,0,0,3-10.52,3.6,3.6,0,0,1-2.25-1.17,3.66,3.66,0,0,1-.77-2.46,5.73,5.73,0,0,1,1.18-3.71,3.71,3.71,0,0,1,3-1.46,3.44,3.44,0,0,1,3.08,1.7A8.75,8.75,0,0,1,322.11,275.06Z" transform="translate(-41.24 -0.34)"/><path class="cls-4" d="M348.46,292.76a10.78,10.78,0,0,1-2.13-.19,5.81,5.81,0,0,1-1.57-.57,11.52,11.52,0,0,0,2.23-4,14.48,14.48,0,0,0,.82-4.84,13.09,13.09,0,0,0-1.16-5.35,24.64,24.64,0,0,0-3.76-5.69,10.18,10.18,0,0,0,2.22-2.68,5.49,5.49,0,0,0,.74-2.68,3,3,0,0,0-.87-2.26,3.29,3.29,0,0,0-2.35-.83,5.88,5.88,0,0,0-4.27,1.76,5.77,5.77,0,0,0-1.77,4.23,5.28,5.28,0,0,0,.25,1.72,3.88,3.88,0,0,0,.84,1.37A87,87,0,0,1,328.16,287c-3.05,3.57-5.52,5.47-7.41,5.73L319.62,297a15,15,0,0,0,3.7-1,12.83,12.83,0,0,0,3.14-1.9,9.36,9.36,0,0,0,3.44,2.23,12.11,12.11,0,0,0,4.38.8,13.74,13.74,0,0,0,3.12-.38,19.45,19.45,0,0,0,3.48-1.16,14.56,14.56,0,0,0,3,1.07,14.19,14.19,0,0,0,3.17.35h.86l1.15-4.26Zm-9.46-3a6.76,6.76,0,0,1-4.37,3,6.94,6.94,0,0,0-1.32-2.32,4.85,4.85,0,0,0-1.93-1.37,56.21,56.21,0,0,0,4.85-6.12,34.6,34.6,0,0,0,3.26-5.81,34.49,34.49,0,0,1,.83,3.55,18,18,0,0,1,.26,3A10.75,10.75,0,0,1,339,289.76Z" transform="translate(-41.24 -0.34)"/><path class="cls-3" d="M73.19,271.34c0,2,2,3.81,3.67,4.65.92-.65,2-1.77,2-5.12,0-2-.91-4.37-2.66-4.37C73.89,266.5,73.19,268.92,73.19,271.34Z" transform="translate(-41.24 -0.34)"/><path class="cls-4" d="M102.66,291.89l-.87-.65c-.09-.09-.22-.05-.35.14-.35.51-1.75,3.07-4.54,3.07-2.36,0-4.19-2-4.85-2.7-1.31-1.35-3-3.76-3.62-4.23a80.78,80.78,0,0,0,5.46-8.74c.61-1,1.35-1.21,2.66-1.21h.74c.26,0,.31-.14.31-.33v-1c0-.23,0-.37-.31-.37s-2.88.14-4.5.14c-2.27,0-4.62-.14-5-.14s-.3.09-.3.23v1.11c0,.19,0,.33.3.33h.57A1.33,1.33,0,0,1,89.7,279a12.36,12.36,0,0,1-2.58,6.79c-2.31-3.67-5.24-7.12-8.6-8.65,2.45-1,5.15-3.53,5.24-6.14.09-3.16-2.62-6.46-7.51-6.46-4.1,0-8.29,4.28-8.34,7.95,0,2.33,1.4,4.37,4.37,6.46a24.07,24.07,0,0,0-4.46,3.26,11,11,0,0,0-3.66,7.91c0,3.48,3.93,8,10.12,8,5.59,0,8.13-3.67,10-5.53,2.31,2.79,4.23,5.53,9.17,5.53,5.5,0,8.42-4.32,9.21-5.86C102.75,292.08,102.75,291.94,102.66,291.89Zm-26.72,2.7a6.37,6.37,0,0,1-5.71-6.19c-.09-3.85,2.09-7.25,3.53-8.18,3.32,2.09,7.38,6.93,9.48,10.65C81.7,292.59,79.79,294.59,75.94,294.59Z" transform="translate(-41.24 -0.34)"/><path class="cls-7" d="M198.51,24.7,174.59,146.93h.56L199.43,25.08ZM121.19,97.47a152.25,152.25,0,0,1,28.19,8.59l0-.14a153.74,153.74,0,0,0-27.87-8.45c12.81-27.28,27.44-50,41.25-58.11l.05-.23C148.91,47,134.12,69.93,121.19,97.47Zm-4.86,10.58c-5.17,12-9.94,24.59-14.06,37l.33,0c4.14-12.43,8.89-25,14.07-37ZM89.65,93.58c3,0,6.51.26,10.76.7l0,0C96.15,93.81,92.6,93.61,89.65,93.58ZM65.5,120.9c1.19,0,3,4.18,3,7.59,0,5.84-5.64,9.52-12.75,9.58h.18c7.19,0,12.92-3.69,12.92-9.58,0-3.41-1.8-7.59-3-7.59,3-8.31,12.56-11.8,26.69-12.82a0,0,0,0,1,0,0C78.22,109,68.49,112.52,65.5,120.9ZM690.07,75.54l-.35,0c1.87,42.56,3.53,61,4.43,73.36l.35.07C693.6,136.63,691.94,118.23,690.07,75.54Zm-72.64,56.92c-.08,1.06-.16,2.11-.26,3.15l.33,0c.1-1.06.2-2.12.28-3.2C632,127.82,645,116.92,656.23,99l0-.51C644.88,116.71,631.75,127.78,617.43,132.46Zm.75-12.87C618,95,608.77,81.74,590.19,81c18.36.86,27.45,14.09,27.64,38.58Zm-51.89,9.62.34,0c5.5-17.61,14.11-33.09,23.67-33.26h-.19C580.49,96,571.81,111.5,566.29,129.21Zm-297.87-47c14.08.5,24.27,8.69,24.27,27.8,0,9.14-2.33,20.35-4.84,31.14l.36,0c2.51-10.78,4.83-22,4.83-31.11C293,90.76,282.68,82.59,268.42,82.23Zm-16.64,22.41c-8.32,0-14.52,10.29-18,22.64,0,0-1.52,7.41-3.63,17.77l.36,0,3.62-17.75c3.45-12.29,9.6-22.54,17.87-22.64Zm-9.26-21.43L240,96l.46-.54,2.42-12.23ZM433.87,96c-9.68,0-18.64,15.72-24.35,33.57l.36,0c5.68-17.73,14.57-33.37,24.18-33.54ZM462,120.4c0-25.2-9.2-38.66-28-39.36,18.55.88,27.63,14.32,27.63,39.36a4.4,4.4,0,0,0,2.17.49A4.44,4.44,0,0,1,462,120.4Zm60.62-37.19-8.49,42.45h.34L523,83.21Zm-136.25,0-1.86,9.86h.34l1.87-9.86ZM367.1,44.36l-7.85,38.85h.35l7.86-38.9Zm-9.72,48.71-8.52,42.54.36,0,8.51-42.5Z" transform="translate(-41.24 -0.34)"/><path class="cls-8" d="M694.15,149c-11.94-2.32-23.32-4.43-34.21-6.36-1-9.25-2.18-22.34-3.39-44.13l-.32.51,0-.51c-11.32,18.25-24.45,29.32-38.77,34-.08,1.06-.16,2.11-.26,3.15-7.33-1.09-14.41-2.07-21.29-3-2-1.88-3.09-4.94-3.09-9.54,0-6.68,2.53-10.86,6.46-12.85-.46-10.29-3-14.27-8.79-14.27h-.35c-9.62,0-18.3,15.52-23.82,33.23-11.36-1.14-22.1-2-32.42-2.62,7.8-21,22-40.7,45.55-44.82l1.18-.19,1.16-.16,1.19-.14,1.38-.13,1.27-.08,1.31,0,1.34,0h.34c.44,0,.87,0,1.3,0a1.51,1.51,0,0,1,.3,0c18.36.86,27.45,14.09,27.64,38.58l.35,0v0c11.79-.72,24.51-15,37.71-39.11l33.83-4.92C691.59,118.15,693.25,136.57,694.15,149Z" transform="translate(-41.24 -0.34)"/><path class="cls-8" d="M522.62,83.21l-8.49,42.45a735.09,735.09,0,0,0-77.88,1.7,18.27,18.27,0,0,1-.36-3.77c0-6.88,3-11.35,7.13-13.34C442.55,100,440.28,96,434.22,96h-.35c-9.68,0-18.64,15.72-24.35,33.57-11.16,1-22.59,2.18-34.55,3.4,8.19-25.73,25.64-51.76,57.1-51.95h.35c.43,0,.86,0,1.28,0a1.71,1.71,0,0,1,.32,0c18.55.88,27.63,14.32,27.63,39.36a4.4,4.4,0,0,0,2.17.49h.72c5.46,0,12.12-2,18.65-4.9l6.53-32.79Z" transform="translate(-41.24 -0.34)"/><path class="cls-8" d="M386.37,83.21l-1.86,9.86H357.38l-8.52,42.54c-10.65,1.06-21.77,2.14-33.54,3.21l9.17-45.75h-7.67l1.87-9.86h7.6l7-34,33.82-4.85-7.85,38.85Z" transform="translate(-41.24 -0.34)"/><path class="cls-8" d="M292.69,110c0,9.14-2.33,20.35-4.84,31.14-10,.8-20.51,1.57-31.53,2.3,2.2-9.95,4.14-19.46,4.14-26.27,0-8.16-2.8-12.56-8.33-12.56h-.35c-8.32,0-14.52,10.29-18,22.64,0,0-1.52,7.41-3.63,17.77q-17.49.94-33.41,1.41c6.32-31.43,12.87-63.25,12.87-63.25h32.9L240,96l.46-.54-.11.54c8.76-10.61,17.84-13.28,24.82-13.71l.68,0,1.38,0h.17c.35,0,.69,0,1,0C282.5,82.73,292.69,90.92,292.69,110Z" transform="translate(-41.24 -0.34)"/><path class="cls-8" d="M181.17,21.67c-27,0-57.09,33.22-80.41,72.61l-.33,0,0,0c-4.25-.44-7.8-.65-10.76-.7H87.37C60.78,94,41.59,107.33,41.59,123.8c0,9.28,6.06,14,13.6,14.26h.55c7.11-.06,12.75-3.74,12.75-9.58,0-3.41-1.8-7.59-3-7.59,3-8.38,12.72-11.86,27.05-12.85a0,0,0,0,0,0,0l.35,0c-6.13,11.5-11.69,23.25-16.45,34.66,8,.91,16.54,1.7,25.83,2.36,4.12-12.43,8.89-25,14.06-37l.34,0a.06.06,0,0,1,0,0c10.19,1,19.19,3.19,31,8.87,0,0-2.57,13.08-5.86,29.89q15.4.31,32.79.12L198.51,24.7A50.86,50.86,0,0,0,181.17,21.67Zm-31.44,84.39-.32-.14,0,.14a152.25,152.25,0,0,0-28.19-8.59C134.12,69.93,148.91,47,162.84,39.13l-.05.23.39-.23Z" transform="translate(-41.24 -0.34)"/><path class="cls-9" d="M505.06,43.34c11.15,4.42,17.48,7.42,27.2,6.62a25,25,0,0,0,.42-4.53c0-13.38-10.18-24.29-22.74-24.29-10.89,0-20,8.37-22.1,19.44C493.88,40.58,499.93,41.31,505.06,43.34Z" transform="translate(-41.24 -0.34)"/><polygon class="cls-4" points="205.36 9.13 201.16 33.67 198.14 32.58 199.88 22.39 186.31 22.39 184.56 32.58 181.23 33.67 185.43 9.13 188.57 9.13 186.77 19.66 200.35 19.66 202.15 9.13 205.36 9.13"/><polygon class="cls-4" points="220.39 11.83 219.06 19.59 228.53 19.59 228.07 22.29 218.6 22.29 217.25 30.15 227.37 30.15 227.83 32.85 213.64 32.85 217.7 9.13 231.72 9.13 230.06 11.83 220.39 11.83"/><polygon class="cls-4" points="252.93 32.85 238.33 32.85 242.39 9.13 245.53 9.13 241.94 30.15 252.19 30.15 252.93 32.85"/><path class="cls-3" d="M316.19,14.56,311,22.87h7.56Z" transform="translate(-41.24 -0.34)"/><polygon class="cls-4" points="283.69 32.68 280.56 33.98 278.09 25.26 268.07 25.26 262.51 34.02 259.9 32.68 274.64 9.43 276.59 8.61 283.69 32.68"/><path class="cls-4" d="M358.27,17.19a8.34,8.34,0,0,0-1.45-3.79,8.8,8.8,0,0,0-3.52-2.82,14.31,14.31,0,0,0-6.12-1.11h-8.61l-4.06,23.72h9a15.67,15.67,0,0,0,6.12-1.09A14.14,14.14,0,0,0,354,29.3a13,13,0,0,0,2.79-3.85,16.13,16.13,0,0,0,1.38-4.22A14,14,0,0,0,358.27,17.19Zm-3.46,4a11,11,0,0,1-4,6.89,10.75,10.75,0,0,1-3.3,1.77,11.52,11.52,0,0,1-3.67.6h-5.71l3.13-18.32h5.5a10.21,10.21,0,0,1,3.81.66,7.22,7.22,0,0,1,2.7,1.87,6.67,6.67,0,0,1,1.48,2.87A9,9,0,0,1,354.81,21.23Z" transform="translate(-41.24 -0.34)"/><polygon class="cls-4" points="333.1 11.83 331.78 19.59 341.25 19.59 340.79 22.29 331.32 22.29 329.97 30.15 340.09 30.15 340.55 32.85 326.36 32.85 330.42 9.13 344.44 9.13 342.78 11.83 333.1 11.83"/><path class="cls-4" d="M404.88,21.57A7.31,7.31,0,0,0,410,15.76a6.23,6.23,0,0,0,0-2.36,4.11,4.11,0,0,0-1.06-2,5.78,5.78,0,0,0-2.31-1.4,11,11,0,0,0-3.73-.53h-6.53l-4.07,23.76h3.15l1.85-10.81h4.43l6,11.66,2.92-1.67Zm-4.11-1.85h-3L399,12.17h3c1.84,0,3.12.35,3.84,1.06a2.89,2.89,0,0,1,.8,2.7,4.17,4.17,0,0,1-1.75,2.77A7.09,7.09,0,0,1,400.77,19.72Z" transform="translate(-41.24 -0.34)"/><polygon class="cls-4" points="390.12 1.47 384.43 8.17 382.94 7.11 388.39 0 390.12 1.47"/><polygon class="cls-4" points="385.91 8.31 381.72 32.85 378.5 32.85 382.49 9.5 385.91 8.31"/><path class="cls-3" d="M447.58,14.56l-5.22,8.31h7.56Z" transform="translate(-41.24 -0.34)"/><polygon class="cls-4" points="415.08 32.68 411.95 33.98 409.47 25.26 399.46 25.26 393.89 34.02 391.28 32.68 406.03 9.43 407.98 8.61 415.08 32.68"/></g></g></svg>